<?xml version="1.0" encoding="utf-8"?>
<!-- Generator: Adobe Illustrator 21.0.0, SVG Export Plug-In . SVG Version: 6.00 Build 0)  -->
<svg version="1.1" id="Layer_1" xmlns="http://www.w3.org/2000/svg" xmlns:xlink="http://www.w3.org/1999/xlink" x="0px" y="0px"
	 width="799.4px" height="237.2px" viewBox="0 0 799.4 237.2" style="enable-background:new 0 0 799.4 237.2;" xml:space="preserve"
	>
<style type="text/css">
	.st0{display:none;fill:#808184;}
	.st1{display:none;fill:#EC1C24;}
	.st2{fill:#00A8AB;}
	.st3{fill:#00529A;}
</style>
<g>
	<polygon class="st0" points="412.9,13.9 414.8,13.9 414.8,16.5 412.9,16.5 412.9,13.9 	"/>
	<polygon class="st0" points="408.7,13.9 410.6,13.9 410.6,16.5 408.7,16.5 408.7,13.9 	"/>
	<polygon class="st0" points="417.1,13.9 419,13.9 419,16.5 417.1,16.5 417.1,13.9 	"/>
	<polygon class="st0" points="421.3,13.9 423.2,13.9 423.2,16.5 421.3,16.5 421.3,13.9 	"/>
	<polygon class="st0" points="412.9,18.2 414.8,18.2 414.8,20.7 412.9,20.7 412.9,18.2 	"/>
	<polygon class="st0" points="408.7,18.2 410.6,18.2 410.6,20.7 408.7,20.7 408.7,18.2 	"/>
	<polygon class="st0" points="417.1,18.2 419,18.2 419,20.7 417.1,20.7 417.1,18.2 	"/>
	<polygon class="st0" points="421.3,18.2 423.2,18.2 423.2,20.7 421.3,20.7 421.3,18.2 	"/>
	<polygon class="st0" points="412.9,9.6 414.8,9.6 414.8,12.2 412.9,12.2 412.9,9.6 	"/>
	<polygon class="st1" points="408.7,5.4 410.6,5.4 410.6,12.2 408.7,12.2 408.7,5.4 	"/>
	<polygon class="st0" points="417.1,9.6 419,9.6 419,12.2 417.1,12.2 417.1,9.6 	"/>
	<polygon class="st0" points="412.9,5.4 414.8,5.4 414.8,8 412.9,8 412.9,5.4 	"/>
	<polygon class="st0" points="417.1,5.4 419,5.4 419,8 417.1,8 417.1,5.4 	"/>
	<polygon class="st1" points="412.9,0.1 414.8,0.1 414.8,3.7 412.9,3.7 412.9,0.1 	"/>
	<polygon class="st0" points="412.9,22.4 414.8,22.4 414.8,26.1 412.9,26.1 412.9,22.4 	"/>
	<polygon class="st0" points="408.7,22.4 410.6,22.4 410.6,26.6 408.7,26.6 408.7,22.4 	"/>
	<polygon class="st0" points="417.1,22.4 419,22.4 419,25.6 417.1,25.6 417.1,22.4 	"/>
	<polygon class="st1" points="404.5,13.9 406.4,13.9 406.4,27.4 404.5,27.4 404.5,13.9 	"/>
	<g>
		<polygon class="st0" points="421.3,22.4 423.2,22.4 423.2,25.1 421.3,25.1 421.3,22.4 		"/>
	</g>
	<path class="st1" d="M423.6,29.2c-0.3,0.3-0.6,0-0.9,0.2c0,0,0-0.2-0.1-0.1c-0.3,0.3-0.7,0.1-1.1-0.1v-0.1c-0.1,0-0.2,0.1-0.2,0.1
		v-0.1c0,0.1-0.1,0-0.2,0.1L421,29v0.1c-0.1,0.3-0.3,0-0.4,0.1v-0.1c-0.2,0.2-0.5,0.1-0.8,0.2v-0.2c0,0.1-0.1,0.2-0.2,0.2
		c0-0.1-0.1,0.1-0.2,0l0,0c-0.1,0.1-0.1-0.1-0.1,0.1v-0.1c0,0.2-0.1-0.1-0.1,0l0,0h-0.1l0,0c-0.1,0-0.2-0.1-0.2,0.1
		c0-0.1,0.1,0,0-0.2c-0.4,0.1-0.7,0.1-1.1,0.1l-0.1-0.1l-0.2,0.1v-0.1c-0.1-0.1-0.1,0.2-0.1,0.1v-0.1c-0.1,0.1-0.1,0.1-0.2,0.1v-0.1
		c-0.1,0.1-0.1,0-0.2,0.1v-0.1c-0.1-0.1,0,0.2-0.1,0.1v-0.1c-0.1,0.2-0.2,0.1-0.3,0.2l0,0h-0.3c0,0,0-0.2-0.1-0.2
		c0,0.2-0.2,0.1-0.1,0.3c-0.1,0-0.2-0.1-0.3,0c0-0.1,0-0.2,0-0.2l-0.1-0.1c0-0.1,0.1,0,0-0.1l-0.2,0.1c-0.1,0.1-0.1,0.3-0.2,0.3
		v-0.2l-0.1,0.3c0,0,0-0.1-0.1-0.1v0.1c0,0-0.1,0-0.2-0.1v-0.1l-0.1,0.1l0,0c0,0-0.1,0.1-0.1,0.2v-0.1l-0.2,0.1v-0.1l-0.3,0.2
		c0,0.1,0-0.1,0-0.1c-0.1-0.1-0.3,0.2-0.4,0v0.1c-0.1,0-0.1-0.1-0.1-0.1c0-0.1,0,0-0.1,0l0,0c-0.1,0.1-0.3,0.2-0.4,0.1l-0.1,0.2
		v-0.1c0-0.1-0.1,0-0.1-0.1c-0.1,0.1,0.2-0.1,0.2,0c0-0.1-0.1,0.2-0.1,0c-0.1,0-0.1,0.1-0.2,0v-0.1l-0.1,0.1l0,0c0,0.1-0.1,0,0,0.1
		c0-0.1-0.1,0.1-0.1-0.1v-0.1l-0.1,0.2v-0.1c0,0.2-0.1,0-0.1,0.2c-0.1-0.1-0.2,0-0.2-0.1c-0.1,0.1-0.1,0.1-0.2,0.1v-0.1
		c0-0.1-0.1,0-0.1,0s-0.1-0.1-0.2-0.2v0.2c-0.1-0.2-0.2,0.1-0.2,0c0,0,0.1-0.1,0-0.2c-0.1-0.2-0.1,0.2-0.2,0.1V30
		c-0.1-0.1-0.1,0.1-0.1-0.1c0,0.1-0.1,0-0.1,0.1c-0.2-0.1-0.3,0.1-0.5-0.2l-0.1,0.1c0,0.1,0-0.1,0.1,0V30c0,0-0.1,0-0.1-0.2
		c-0.1-0.1-0.1,0.3-0.2,0.2l-0.1-0.1l-0.1,0.1c-0.1,0-0.1-0.1-0.1-0.3l-0.1,0.1l-0.1-0.1c0.1,0.1,0,0.1,0,0.1l0,0h-0.1l0.1,0.1
		l-0.1,0.1c0-0.1-0.1-0.1-0.1-0.1V30c0-0.1-0.1,0,0-0.1h0.1c0,0,0-0.1-0.1-0.1c0,0.1,0,0.2,0,0.2v-0.1h-0.1V30l0,0
		c0,0.1-0.1,0.1-0.1,0.2l-0.1-0.1l0,0c-0.1,0-0.1,0-0.1,0.1l0,0l-0.1,0.1c-0.1-0.1-0.1-0.4-0.1-0.2c-0.1,0-0.1,0.2,0,0.3
		c-0.1,0-0.2,0.1-0.3,0v0.1c-0.2,0-0.3,0.2-0.5,0v-0.2c0,0.1-0.1-0.1,0,0.1l0.1,0.2c-0.1,0.1-0.2,0.1-0.3,0v0.1
		c0-0.1-0.1-0.1-0.1-0.1v0.1l-0.1-0.1c0,0,0,0.2-0.1,0.1v-0.1c0,0.1-0.1,0.2-0.2,0.2l-0.1-0.1v0.1l-0.2-0.2
		c-0.1,0.3-0.3,0.4-0.5,0.4v-0.1c-0.1,0,0,0.1,0,0.1l-0.1-0.2c-0.1,0-0.1,0.1-0.1,0.2s0-0.1,0,0c0,0-0.1,0-0.1,0.1l-0.1-0.2V31
		c-0.1-0.1,0-0.3-0.1-0.5l0,0c-0.1-0.1,0.1-0.2,0-0.2c0,0.1,0,0.3,0,0.3c-0.1,0.1,0,0.3-0.1,0.3c0-0.1,0.1,0,0-0.1
		c-0.1-0.1-0.1,0.1-0.1,0.1v0.2L406,31c0,0.1,0,0.2,0,0.2c0,0.2-0.1,0-0.1,0.1c-0.1-0.1,0-0.3-0.1-0.3c0,0.1,0,0.2,0,0.3l-0.1-0.2
		c-0.1-0.1,0,0.2-0.1,0v0.1l-0.1-0.1c0,0-0.1,0.2-0.1,0c0,0-0.1,0,0,0.1c0.1,0.1,0-0.1,0.1,0c-0.1-0.1-0.1,0-0.1,0.1v-0.1v0.1v-0.1
		v0.1c-0.1,0.1-0.1-0.2-0.1-0.1v-0.1h-0.1v0.3c0,0.1-0.1-0.1-0.1,0v-0.1c0,0-0.1-0.1-0.2-0.1v0.2l-0.1-0.1v0.2l-0.2-0.2v-0.2l0,0
		c0-0.1-0.1-0.1-0.1-0.2l-0.1,0.1c0.2,0.2,0,0.3,0.1,0.5c-0.1,0.1-0.3-0.4-0.2-0.1c0,0,0.1,0.2,0.1,0.1c-0.1,0,0,0.2-0.1,0.2
		c0-0.1-0.1-0.2-0.1-0.3c0,0.1,0.1,0,0.1,0c-0.1-0.1-0.1-0.2-0.1-0.2s-0.1,0.1,0,0.2c0,0.1,0.1,0,0.1,0.1c-0.1,0.1-0.1-0.1-0.1,0.1
		l0.1,0.1v0.1v-0.1c-0.1,0,0,0.1-0.1,0.2l-0.1-0.1c0-0.1,0.1,0,0-0.2l-0.1,0.1v-0.1c0,0-0.2-0.2-0.2-0.1l0.1,0.1l-0.1,0.2
		c-0.1-0.1-0.1,0-0.1-0.1c0.1,0.1,0.2,0,0.2-0.1c-0.1-0.1,0.1,0,0-0.2c-0.1,0-0.2-0.1-0.2-0.2v0.1l0.1,0.2c-0.1,0-0.1,0.1-0.1,0.2
		l-0.1-0.2l-0.3,0.1c0.1,0.1-0.1,0.1,0.1,0.2c0.1,0,0.2,0.1,0.2,0.2l-0.1-0.1c0,0.1-0.1-0.1-0.1,0.1c0-0.1-0.1-0.2-0.2-0.3
		c0,0.1-0.1-0.1-0.1,0L403,32c-0.2,0-0.2,0.2-0.2,0.2c-0.1,0-0.2-0.2-0.2-0.1c0,0,0.2,0.1,0,0.1l0,0c0,0-0.2,0-0.1,0.2l-0.1-0.1v0.1
		l-0.1-0.1c-0.1,0-0.1,0.1-0.1,0.2h0.1c0,0.1-0.1,0.1-0.1,0.2h-0.1v0.1c-0.1,0-0.2,0-0.1,0l-0.2-0.2l0.2,0.1c0.1,0,0.1-0.1,0-0.1
		v0.1c-0.1,0-0.1-0.1-0.2-0.2v0.1v-0.2l0.1,0.1c-0.1-0.1-0.1-0.2,0-0.2c0.2,0.1,0-0.2,0.2-0.2l0.1,0.3h0.1c0-0.1-0.1-0.2-0.1-0.3
		l0.1,0.1c0-0.1-0.1-0.2,0-0.2l0.4-0.2l0.1,0.1c-0.1-0.2,0.1-0.2,0.2-0.3c0.2,0,0.2-0.2,0.4-0.1l0.6-0.4v0.1c0-0.1,0.1,0.1,0.1,0
		c-0.1-0.1,0-0.2,0-0.2c0.1,0,0.2-0.1,0.3-0.3v0.1c0-0.2,0.2-0.1,0.3-0.1l0.1,0.1c0-0.2,0.1-0.2,0.1-0.3h0.3
		c0.2-0.3,0.5-0.2,0.8-0.5v0.1c0.2-0.3,0.6-0.2,0.8-0.4v0.2c0.1,0,0.2-0.1,0.1-0.2c0.1,0,0.2-0.1,0.2,0c0.1,0,0.1-0.1,0.1-0.1h0.4
		l0,0v0.1c0-0.1,0.2,0,0.1-0.2c0.2,0.1,0.3-0.2,0.5,0v-0.1c0.1,0,0.3,0.1,0.4-0.1v0.1v-0.1c0.2-0.2,0.5,0,0.7,0
		c0.3-0.2,0.7-0.1,1.1-0.2l0,0c0.1-0.2,0.3,0.1,0.4-0.1l0.1,0.1c0.1-0.1,0.3,0.1,0.4-0.1l0,0c0.1,0.1,0.2-0.1,0.4,0v0.1
		c0.1,0.1,0.1-0.2,0.2,0V29c0.3,0,0.6-0.1,1-0.2c0.2,0.1,0,0.4,0.2,0.2l0,0c0.1-0.1,0.1,0.2,0.2,0.1c0-0.1,0-0.1,0-0.2
		c0.1,0.1,0.2,0.2,0.3,0.1v0.1c0.1-0.2,0.3-0.1,0.4-0.3l2.1-0.3c0.7,0,1.4-0.1,2.1,0c0.2,0.2,0.2,0.2,0.4,0.1v0.1
		c0-0.1,0.1,0,0.1-0.1h0.8v0.1l0.1-0.1l0,0v-0.1c0.7-0.1,1.3,0.2,2,0.2c0.2,0.1,0.4,0,0.5,0c0.5,0.2,0.9,0.4,1.5,0.3
		C423.9,28.7,423.8,29.1,423.6,29.2L423.6,29.2L423.6,29.2z"/>
	<path class="st1" d="M405,31.9C405.1,31.9,405.1,31.8,405,31.9C405.1,31.8,405.1,32,405,31.9L405,31.9L405,31.9z"/>
	<polygon class="st1" points="405.3,31.7 405.4,31.6 405.4,31.7 405.3,31.7 	"/>
	<polygon class="st1" points="411.7,30 411.7,30.1 411.7,30 411.7,30 	"/>
	<path class="st1" d="M414.7,29.8C414.7,29.7,414.7,29.8,414.7,29.8L414.7,29.8L414.7,29.8L414.7,29.8z"/>
	<polygon class="st1" points="416.2,29.4 416.2,29.4 416.2,29.3 416.2,29.4 	"/>
	<path class="st1" d="M317.6,4.7c0.1,0.1,0.2,0.2,0.4,0.2c0.1,0.1,0.3,0.1,0.4,0.1c0.2,0,0.3,0,0.4-0.1c0.1-0.1,0.3-0.1,0.4-0.2
		c0.1-0.1,0.2-0.2,0.2-0.4c0.1-0.1,0.1-0.3,0.1-0.4c0-0.3-0.1-0.6-0.3-0.8c-0.2-0.2-0.5-0.3-0.8-0.3s-0.6,0.1-0.8,0.3
		c-0.2,0.2-0.3,0.5-0.3,0.8c0,0.2,0,0.3,0.1,0.4C317.5,4.4,317.5,4.5,317.6,4.7L317.6,4.7z"/>
	<path class="st1" d="M320.5,4.7c0.1,0.1,0.2,0.2,0.4,0.2C321,5,321.2,5,321.3,5c0.2,0,0.3,0,0.4-0.1c0.1-0.1,0.3-0.1,0.4-0.2
		c0.1-0.1,0.2-0.2,0.2-0.4c0.1-0.1,0.1-0.3,0.1-0.4c0-0.3-0.1-0.6-0.3-0.8c-0.2-0.2-0.5-0.3-0.8-0.3s-0.6,0.1-0.8,0.3
		c-0.2,0.2-0.3,0.5-0.3,0.8c0,0.2,0,0.3,0.1,0.4S320.4,4.5,320.5,4.7L320.5,4.7z"/>
	<path class="st1" d="M286.9,15.8c-0.1-0.1-0.2-0.2-0.3-0.2c-0.1-0.1-0.3-0.1-0.4-0.1c-0.3,0-0.6,0.1-0.8,0.3
		c-0.2,0.2-0.3,0.5-0.3,0.8c0,0.1,0,0.3,0.1,0.4c0.1,0.1,0.1,0.2,0.2,0.3c0.1,0.1,0.2,0.2,0.3,0.2c0.1,0.1,0.3,0.1,0.4,0.1
		c0.2,0,0.3,0,0.4-0.1c0.1-0.1,0.2-0.1,0.3-0.2s0.2-0.2,0.2-0.3c0.1-0.1,0.1-0.3,0.1-0.4c0-0.2,0-0.3-0.1-0.4
		C287.1,16,287,15.9,286.9,15.8L286.9,15.8z"/>
	<path class="st1" d="M290,15.8c-0.1-0.1-0.2-0.2-0.3-0.2c-0.1-0.1-0.3-0.1-0.4-0.1c-0.3,0-0.6,0.1-0.8,0.3
		c-0.2,0.2-0.3,0.5-0.3,0.8c0,0.1,0,0.3,0.1,0.4c0.1,0.1,0.1,0.2,0.2,0.3c0.1,0.1,0.2,0.2,0.3,0.2c0.1,0.1,0.3,0.1,0.4,0.1
		c0.2,0,0.3,0,0.4-0.1c0.1-0.1,0.2-0.1,0.3-0.2c0.1-0.1,0.2-0.2,0.2-0.3c0.1-0.1,0.1-0.3,0.1-0.4c0-0.2,0-0.3-0.1-0.4
		C290.1,16,290.1,15.9,290,15.8L290,15.8z"/>
	<path class="st1" d="M313.5,9.6c-0.2,0.3-0.4,0.6-0.7,0.9c-0.3,0.3-0.6,0.5-1,0.7c-0.4,0.2-0.8,0.4-1.3,0.5
		c-0.2-0.3-0.4-0.6-0.6-0.9c-0.3-0.3-0.6-0.6-0.9-1c-0.3-0.3-0.7-0.6-1-0.9s-0.7-0.6-1-0.8c0.5-0.1,1-0.1,1.6-0.2
		c0.6,0,1.2-0.1,1.8-0.1c0.4,0,0.8,0,1.1,0c0.4,0,0.7,0.1,1,0.1c0.3,0.1,0.6,0.1,0.8,0.2c0.2,0.1,0.3,0.1,0.4,0.2
		C313.7,8.9,313.6,9.2,313.5,9.6L313.5,9.6z M299.9,12.2c-0.2,0.3-0.4,0.6-0.7,0.8c-0.3,0.2-0.6,0.4-1,0.6c-0.4,0.1-0.8,0.2-1.2,0.2
		s-0.8-0.1-1.2-0.2s-0.7-0.3-1-0.6c-0.3-0.2-0.5-0.5-0.6-0.8c-0.2-0.3-0.2-0.7-0.2-1c0-0.4,0.1-0.7,0.2-1c0.2-0.3,0.4-0.6,0.7-0.8
		c0.3-0.2,0.6-0.4,1-0.6c0.4-0.1,0.8-0.2,1.2-0.2s0.8,0.1,1.2,0.2s0.7,0.3,1,0.6c0.3,0.2,0.5,0.5,0.7,0.8s0.2,0.7,0.2,1
		C300.2,11.5,300.1,11.9,299.9,12.2L299.9,12.2z M329.9,1.3v10.5H328h-0.2h-0.6V1.3h-2.3v10.5h-2h-0.1h-1.5V6.5H319v5.3h-1.9H317
		h-2.2c0.6-0.5,0.6-0.7,0.9-1.3c0.3-0.6,0.5-1.4,0.5-2.2c0-0.5-0.2-0.9-0.5-1.2c-0.3-0.3-0.7-0.6-1.2-0.8c-0.5-0.2-1.1-0.3-1.8-0.4
		c-0.7-0.1-1.4-0.1-2.1-0.1c-0.6,0-1.1,0-1.7,0.1c-0.6,0-1.1,0.1-1.7,0.2c-0.5,0.1-1,0.2-1.5,0.3c-0.4,0.1-0.8,0.2-1.1,0.3v2
		c0.1,0.1,0.3,0.2,0.5,0.4c0.2,0.2,0.4,0.3,0.7,0.5c0.2,0.2,0.5,0.4,0.7,0.6c0.3,0.2,0.5,0.4,0.8,0.7c0.2,0.2,0.1,0,0.3,0.3
		c0.2,0.2,0.4,0.4,0.6,0.6h-4.6h-0.2h-1.2c0-0.2,0-0.3,0.1-0.5c0-0.2,0-0.4,0-0.5c0-0.7-0.1-0.9-0.4-1.4c-0.3-0.6-0.6-1.1-1.1-1.5
		s-1-0.8-1.6-1c-0.6-0.2-1.3-0.4-2-0.4s-1.4,0.1-2,0.4c-0.6,0.2-1.2,0.6-1.6,1c-0.5,0.4-0.8,0.9-1.1,1.5s-0.4,1.2-0.4,1.8
		c0,0.3,0,0.2,0,0.6H291h-0.2h-1.9V6.5h-2.3v5.3h-1.5h-0.2h-1.4c0.1-0.5,0.1-0.6,0.1-1.1c0-0.4,0-0.3,0-0.7V6.9h-2.3v3.2
		c0,0.5,0,0.9-0.1,1.3c0,0.4-0.1,0.8-0.3,1.3c-0.1,0.5-0.3,0.9-0.6,1.3c-0.2,0.4-0.5,0.7-0.8,1s-0.7,0.5-1.1,0.7
		c-0.4,0.2-0.9,0.2-1.4,0.2c-0.2,0-0.5,0-0.7-0.1c-0.2,0-0.5-0.1-0.8-0.2l-0.1,1.8c0.4,0.1,0.7,0.2,1.1,0.3c0.4,0.1,0.7,0.1,1,0.1
		c0.7,0,1.4-0.1,2.1-0.4c0.6-0.3,1.2-0.6,1.7-1.1c0.3-0.3,0.6-0.7,0.9-1c0.3-0.4,0.5-0.8,0.7-1.2h1.9h0.2h5.7h0.2h2.1
		c0.5,0.6,1.1,1,1.8,1.3s1.4,0.5,2.3,0.5c0.8,0,1.6-0.2,2.3-0.5s1.3-0.8,1.8-1.3h2.2h0.2H317h0.1h5.8h0.1h4.9h0.2h3.2
		c0.3,0,0.5-0.1,0.7-0.3c0.2-0.2,0.3-0.4,0.3-0.7V1.3L329.9,1.3L329.9,1.3z"/>
	<path class="st1" d="M353.5,15.8c-0.1-0.1-0.2-0.2-0.4-0.2c-0.1-0.1-0.3-0.1-0.4-0.1c-0.3,0-0.6,0.1-0.8,0.3
		c-0.2,0.2-0.3,0.5-0.3,0.8c0,0.2,0,0.3,0.1,0.4c0.1,0.1,0.1,0.3,0.2,0.4c0.1,0.1,0.2,0.2,0.4,0.2c0.1,0.1,0.3,0.1,0.4,0.1
		c0.2,0,0.3,0,0.4-0.1c0.1-0.1,0.3-0.1,0.4-0.2c0.1-0.1,0.2-0.2,0.2-0.4c0.1-0.1,0.1-0.3,0.1-0.4c0-0.2,0-0.3-0.1-0.4
		C353.7,16,353.6,15.9,353.5,15.8L353.5,15.8z"/>
	<path class="st1" d="M356.6,15.8c-0.1-0.1-0.2-0.2-0.4-0.2c-0.1-0.1-0.3-0.1-0.4-0.1c-0.3,0-0.6,0.1-0.8,0.3
		c-0.2,0.2-0.3,0.5-0.3,0.8c0,0.2,0,0.3,0.1,0.4c0.1,0.1,0.1,0.3,0.2,0.4c0.1,0.1,0.2,0.2,0.4,0.2c0.1,0.1,0.3,0.1,0.4,0.1
		c0.2,0,0.3,0,0.4-0.1c0.1-0.1,0.3-0.1,0.4-0.2c0.1-0.1,0.2-0.2,0.2-0.4c0.1-0.1,0.1-0.3,0.1-0.4c0-0.2,0-0.3-0.1-0.4
		C356.8,16,356.7,15.9,356.6,15.8L356.6,15.8z"/>
	<path class="st1" d="M340.4,11.8c0.3-2.6,1.6-3.6,3.8-3.7c0.5,0,0.9,0.1,1.3,0.3c0.4,0.2,0.8,0.4,1.2,0.8c0.3,0.3,0.6,0.8,0.9,1.3
		c0.2,0.5,0.4,0.7,0.5,1.4L340.4,11.8L340.4,11.8z M390.6,1.3v10.5h-1.9h-0.2h-1.3c-0.1-0.6-0.2-1.1-0.4-1.6
		c-0.2-0.5-0.5-0.9-0.8-1.3s-0.7-0.8-1.2-1.1c-0.5-0.3-0.9-0.6-1.5-0.8c-0.5-0.2-1.1-0.4-1.7-0.5c-0.6-0.1-1.2-0.2-1.8-0.3
		c-0.6,0-1.3,0-1.9,0c-0.6,0.1-1.2,0.2-1.8,0.3l0.1,2.3c0.6-0.2,1.1-0.3,1.7-0.4c0.6-0.1,1.2-0.1,1.8,0c0.6,0,1.2,0.1,1.8,0.3
		c0.6,0.1,1.2,0.4,1.7,0.7c0.5,0.3,0.9,0.7,1.3,1.1c0.4,0.4,0.5,0.4,0.6,1.2H374h-0.2h-1c0-0.3-0.1-0.6-0.2-1
		c-0.1-0.4-0.2-0.8-0.4-1.2c-0.2-0.4-0.4-0.8-0.8-1.2c-0.3-0.4-0.7-0.7-1.2-1s-1.1-0.5-1.8-0.7s-1.5-0.3-2.5-0.3h-4.1
		c0.5-0.7,0.5-0.7,1.1-1.2c0.6-0.5,1.3-0.7,2-1c0.5-0.1,1-0.3,1.4-0.3c0.5-0.1,1-0.1,1.4-0.2c0.5,0,0.9-0.1,1.3-0.1
		c0.4,0,0.8,0,1.1,0V1.2c-0.4,0-0.8,0-1.2,0s-0.9,0-1.4,0.1c-0.5,0-1,0.1-1.6,0.2c-0.5,0.1-1.1,0.2-1.6,0.4
		c-0.5,0.2-1.1,0.4-1.6,0.7c-0.5,0.3-1,0.6-1.5,1s-0.9,0.8-1.3,1.3c-0.4,0.5-0.8,1-1,1.7c-0.1,0.5-0.1,0.8-0.1,1s0.1,0.4,0.2,0.5
		c0.1,0.2,0.3,0.3,0.5,0.4s0.4,0.1,0.7,0.1l0,0h5.6c0.7,0,1.2,0.1,1.7,0.2s0.7,0.3,1.1,0.5c0.4,0.2,0.7,0.4,0.9,0.6s0.4,0.5,0.6,0.7
		c0.1,0.3,0.3,0.5,0.3,0.8c0.1,0.3,0,0.1,0.1,0.3h-13.2h-0.2h-1.9V6.4h-2.1v5.3h-1.7h-0.2H350c-0.1-1-0.3-1.5-0.7-2.3
		s-0.8-1.4-1.4-1.9c-0.5-0.5-1.2-0.9-1.8-1.2c-0.7-0.3-1.4-0.4-2-0.4c-0.7,0-1.4,0.1-2.1,0.4s-1.3,0.7-1.9,1.2
		c-0.6,0.6-1,1.2-1.4,2.1c-0.4,0.8-0.6,1.6-0.6,2.7c-0.4,0.2-0.7,0.4-0.9,0.6c-0.3,0.2-0.7,0.7-0.9,1s-0.3,0.6-0.4,0.9
		c-0.1,0.3-0.1,0.7-0.1,1.1c0,0.6,0.1,1.3,0.4,2s0.6,1.3,1.2,1.9l1.6-1.2c-0.4-0.4-0.6-0.9-0.8-1.4s-0.3-0.9-0.3-1.4
		c0-0.3,0-0.5,0.1-0.7c0.1-0.2,0.2-0.4,0.4-0.6c0.2-0.2,0.4-0.3,0.7-0.4s0.6-0.2,1.1-0.2h11.1h0.2h5.7h0.2h16.4h0.2h14.5h0.2h3.2
		c0.3,0,0.5-0.1,0.7-0.3c0.2-0.2,0.3-0.4,0.3-0.7V1.1h-2.3V1.3z"/>
	<polygon class="st1" points="397.4,1.3 397.4,14.1 395.1,14.1 395.1,1.3 397.4,1.3 	"/>
	<polygon class="st0" points="279.3,26.9 275.5,26.9 275.5,21.9 279.3,21.9 279.3,22.9 277.1,22.9 277.1,23.8 279.2,23.8 
		279.2,24.8 277.1,24.8 277.1,25.9 279.3,25.9 	"/>
	<polygon class="st0" points="284.2,26.9 280.3,26.9 280.3,21.9 281.9,21.9 281.9,25.7 284.2,25.7 	"/>
	<polygon class="st0" points="292.6,26.9 291.1,26.9 291.1,25 288.8,25 288.8,26.9 287.3,26.9 287.3,21.9 288.8,21.9 288.8,23.7 
		291.1,23.7 291.1,21.9 292.6,21.9 	"/>
	<path class="st0" d="M297,25l-0.7-1.8l-0.7,1.8H297L297,25z M299.4,26.9h-1.6l-0.4-1h-2.2l-0.4,1h-1.6l2.2-5h1.7L299.4,26.9
		L299.4,26.9z"/>
	<polygon class="st0" points="305.3,26.9 303.5,26.9 301.5,24.6 301.5,26.9 300,26.9 300,21.9 301.5,21.9 301.5,24.1 303.4,21.9 
		305,21.9 303.1,24.3 	"/>
	<polygon class="st0" points="309.8,26.9 306,26.9 306,21.9 309.7,21.9 309.7,22.9 307.5,22.9 307.5,23.8 309.6,23.8 309.6,24.8 
		307.5,24.8 307.5,25.9 309.8,25.9 	"/>
	<polygon class="st0" points="314.6,26.9 310.8,26.9 310.8,21.9 314.5,21.9 314.5,22.9 312.3,22.9 312.3,23.8 314.4,23.8 
		314.4,24.8 312.3,24.8 312.3,25.9 314.6,25.9 	"/>
	<polygon class="st0" points="321.4,26.9 319.9,26.9 319.9,24 318.6,25.7 318.4,25.7 317.1,24 317.1,26.9 315.6,26.9 315.6,21.9 
		317,21.9 318.5,23.8 320.1,21.9 321.4,21.9 	"/>
	<polygon class="st0" points="324.9,21.9 327.6,21.9 327.6,22.5 325.6,22.5 325.6,23.9 327.6,23.9 327.6,24.6 325.6,24.6 
		325.6,26.9 324.9,26.9 	"/>
	<path class="st0" d="M330.8,22.5c-0.6,0-1.1,0.2-1.4,0.5c-0.4,0.4-0.6,0.8-0.6,1.4c0,0.5,0.2,1,0.6,1.4c0.4,0.4,0.8,0.5,1.4,0.5
		c0.6,0,1-0.2,1.4-0.6c0.4-0.4,0.6-0.8,0.6-1.4c0-0.5-0.2-1-0.6-1.4C331.9,22.7,331.4,22.5,330.8,22.5L330.8,22.5z M330.8,21.8
		c0.8,0,1.4,0.2,2,0.7c0.5,0.5,0.8,1.1,0.8,1.9s-0.3,1.4-0.8,1.9s-1.2,0.7-2,0.7s-1.4-0.2-1.9-0.7s-0.8-1.1-0.8-1.8
		c0-0.8,0.3-1.4,0.8-1.9C329.4,22,330,21.8,330.8,21.8L330.8,21.8z"/>
	<path class="st0" d="M335.4,22.5h-0.2v1.6h0.3c0.4,0,0.6,0,0.8-0.1c0.1-0.1,0.2-0.2,0.3-0.3c0.1-0.1,0.1-0.3,0.1-0.4
		c0-0.2,0-0.3-0.1-0.4c-0.1-0.1-0.2-0.2-0.4-0.3C336,22.5,335.8,22.5,335.4,22.5L335.4,22.5z M334.5,26.9v-5h1.3
		c0.5,0,0.9,0.1,1.2,0.4s0.5,0.6,0.5,1c0,0.3-0.1,0.6-0.2,0.8c-0.1,0.2-0.4,0.4-0.6,0.5c0.2,0.1,0.3,0.3,0.5,0.4
		c0.2,0.2,0.4,0.5,0.7,1c0.2,0.3,0.3,0.5,0.4,0.6l0.3,0.4h-0.9l-0.2-0.3c0,0,0,0,0-0.1l-0.1-0.2l-0.2-0.4l-0.2-0.4
		c-0.1-0.2-0.3-0.4-0.4-0.5c-0.1-0.1-0.2-0.2-0.3-0.3c-0.1-0.1-0.3-0.1-0.5-0.1h-0.2v2.2H334.5L334.5,26.9z"/>
	<path class="st0" d="M345.4,25.8v0.8c-0.5,0.3-1.1,0.4-1.8,0.4c-0.6,0-1-0.1-1.4-0.3c-0.4-0.2-0.7-0.5-0.9-0.9
		c-0.2-0.4-0.3-0.8-0.3-1.3c0-0.7,0.3-1.4,0.8-1.9s1.2-0.8,1.9-0.8c0.5,0,1.1,0.1,1.8,0.4V23c-0.6-0.3-1.2-0.5-1.7-0.5
		c-0.6,0-1.1,0.2-1.4,0.5c-0.4,0.4-0.6,0.8-0.6,1.4s0.2,1,0.6,1.4c0.4,0.4,0.9,0.5,1.4,0.5C344.2,26.3,344.8,26.1,345.4,25.8
		L345.4,25.8z"/>
	<path class="st0" d="M348.8,22.5c-0.6,0-1.1,0.2-1.4,0.5c-0.4,0.4-0.6,0.8-0.6,1.4c0,0.5,0.2,1,0.6,1.4c0.4,0.4,0.8,0.5,1.4,0.5
		c0.6,0,1-0.2,1.4-0.6c0.4-0.4,0.6-0.8,0.6-1.4c0-0.5-0.2-1-0.6-1.4C349.8,22.7,349.3,22.5,348.8,22.5L348.8,22.5z M348.8,21.8
		c0.8,0,1.4,0.2,2,0.7c0.5,0.5,0.8,1.1,0.8,1.9s-0.3,1.4-0.8,1.9s-1.2,0.7-2,0.7s-1.4-0.2-1.9-0.7s-0.8-1.1-0.8-1.8
		c0-0.8,0.3-1.4,0.8-1.9C347.3,22,348,21.8,348.8,21.8L348.8,21.8z"/>
	<polygon class="st0" points="356.4,21.9 357.1,21.9 357.1,26.9 356.5,26.9 353.1,23 353.1,26.9 352.4,26.9 352.4,21.9 353,21.9 
		356.4,25.8 	"/>
	<path class="st0" d="M359.4,24.8l-0.6-0.3c-0.3-0.2-0.6-0.4-0.7-0.6c-0.1-0.2-0.2-0.4-0.2-0.7c0-0.4,0.1-0.7,0.4-1
		c0.3-0.2,0.6-0.4,1.1-0.4c0.4,0,0.8,0.1,1.2,0.4V23c-0.4-0.4-0.8-0.5-1.2-0.5c-0.2,0-0.4,0.1-0.6,0.2s-0.2,0.2-0.2,0.4
		c0,0.2,0.1,0.3,0.2,0.4c0.1,0.1,0.3,0.3,0.5,0.4l0.6,0.3c0.6,0.4,0.9,0.8,0.9,1.4c0,0.4-0.1,0.7-0.4,1s-0.6,0.4-1.1,0.4
		s-1-0.2-1.4-0.5v-0.9c0.4,0.5,0.8,0.7,1.4,0.7c0.2,0,0.4-0.1,0.6-0.2s0.2-0.3,0.2-0.5C360.1,25.4,359.9,25.1,359.4,24.8L359.4,24.8
		z"/>
	<polygon class="st0" points="361.2,21.9 365.4,21.9 365.4,22.5 363.6,22.5 363.6,26.9 362.9,26.9 362.9,22.5 361.2,22.5 	"/>
	<path class="st0" d="M367,22.5h-0.2v1.6h0.3c0.4,0,0.6,0,0.8-0.1c0.1-0.1,0.2-0.2,0.3-0.3c0.1-0.1,0.1-0.3,0.1-0.4
		c0-0.2,0-0.3-0.1-0.4c-0.1-0.1-0.2-0.2-0.4-0.3C367.6,22.5,367.4,22.5,367,22.5L367,22.5z M366.1,26.9v-5h1.3
		c0.5,0,0.9,0.1,1.2,0.4c0.3,0.3,0.5,0.6,0.5,1c0,0.3-0.1,0.6-0.2,0.8c-0.1,0.2-0.4,0.4-0.6,0.5c0.2,0.1,0.3,0.3,0.5,0.4
		c0.2,0.2,0.4,0.5,0.7,1c0.2,0.3,0.3,0.5,0.4,0.6l0.3,0.4h-1.1l-0.2-0.3c0,0,0,0,0-0.1l-0.1-0.2l-0.2-0.4l-0.2-0.4
		c-0.1-0.2-0.3-0.4-0.4-0.5c-0.1-0.1-0.2-0.2-0.3-0.3c-0.1-0.1-0.3-0.1-0.5-0.1H367v2.2H366.1L366.1,26.9z"/>
	<path class="st0" d="M373.9,21.9h0.7v2.9c0,0.4,0,0.7-0.1,0.9c-0.1,0.2-0.1,0.4-0.2,0.5c-0.1,0.1-0.2,0.2-0.3,0.4
		c-0.4,0.3-0.9,0.5-1.6,0.5s-1.2-0.2-1.6-0.5c-0.1-0.1-0.2-0.2-0.3-0.4c-0.1-0.1-0.2-0.3-0.2-0.5c-0.1-0.2-0.1-0.5-0.1-0.9v-2.9h0.7
		v2.9c0,0.5,0.1,0.8,0.2,1c0.1,0.2,0.3,0.3,0.5,0.4s0.5,0.2,0.8,0.2c0.4,0,0.8-0.1,1.1-0.3c0.1-0.1,0.2-0.3,0.3-0.4
		c0.1-0.2,0.1-0.4,0.1-0.8V21.9L373.9,21.9z"/>
	<path class="st0" d="M380,25.8v0.8c-0.5,0.3-1.1,0.4-1.8,0.4c-0.6,0-1-0.1-1.4-0.3c-0.4-0.2-0.7-0.5-0.9-0.9s-0.3-0.8-0.3-1.3
		c0-0.7,0.3-1.4,0.8-1.9s1.2-0.8,1.9-0.8c0.5,0,1.1,0.1,1.8,0.4V23c-0.6-0.3-1.2-0.5-1.7-0.5c-0.6,0-1.1,0.2-1.4,0.5
		c-0.4,0.4-0.6,0.8-0.6,1.4s0.2,1,0.6,1.4c0.4,0.4,0.9,0.5,1.4,0.5C378.8,26.3,379.4,26.1,380,25.8L380,25.8z"/>
	<polygon class="st0" points="380.4,21.9 384.7,21.9 384.7,22.5 382.9,22.5 382.9,26.9 382.2,26.9 382.2,22.5 380.4,22.5 	"/>
	<polygon class="st0" points="385.4,21.9 386.1,21.9 386.1,26.9 385.4,26.9 	"/>
	<path class="st0" d="M389.7,22.5c-0.6,0-1.1,0.2-1.4,0.5c-0.4,0.4-0.6,0.8-0.6,1.4c0,0.5,0.2,1,0.6,1.4c0.4,0.4,0.8,0.5,1.4,0.5
		c0.6,0,1-0.2,1.4-0.6c0.4-0.4,0.6-0.8,0.6-1.4c0-0.5-0.2-1-0.6-1.4C390.8,22.7,390.3,22.5,389.7,22.5L389.7,22.5z M389.7,21.8
		c0.8,0,1.4,0.2,2,0.7c0.5,0.5,0.8,1.1,0.8,1.9s-0.3,1.4-0.8,1.9s-1.2,0.7-2,0.7s-1.4-0.2-1.9-0.7s-0.8-1.1-0.8-1.8
		c0-0.8,0.3-1.4,0.8-1.9C388.3,22,388.9,21.8,389.7,21.8L389.7,21.8z"/>
	<polygon class="st0" points="397.4,21.9 398.1,21.9 398.1,26.9 397.4,26.9 394,23 394,26.9 393.4,26.9 393.4,21.9 393.9,21.9 
		397.4,25.8 	"/>
</g>
<g>
	<path class="st2" d="M442.1,105.2c0.1,0.3,0.4,0.3,0.7,0.3l-1-1.1C442,104.7,442.1,104.9,442.1,105.2L442.1,105.2z M319.3,54
		c-0.2-0.3-0.4-0.3-0.8-0.3l1,1.1C319.4,54.6,319.3,54.3,319.3,54L319.3,54z M485.5,52.5c-4.9-0.2-5.5,3-11.5,6.3
		c3.5-1.8-1.3,4.5-6.1,5.8c-6.2,1.5-10.2,8-15,12.9c-3.5-4-7-7.7-10.6-11.4c2.8-2.7,5.8-6,7.7-8c2.7-5.2-2.4-6.3-2.8-6.2
		c-5-0.2-5.5,3-11.5,6.3c1.6-0.8,1.5,0,0.4,1.3c-0.9-1-1.9-2-2.8-3.1c-3.9-4.4-7.6-8.8-11.1-13.1c-6.4-8-13.7-13.9-19.5-22.3
		c0.8-1.3,1.7-2.6,2.5-3.9h-0.1c-0.9,1-1.9,1.9-3.4,2.5c0.6-0.3,0.7,0,0.3,0.5c-0.1-0.2-0.3-0.4-0.4-0.6c0.5-0.8,1.2-1.6,2.3-1.8
		c0,0,0.2-0.5,0.3-0.8c0.4-0.2,0.6,0.1,0.8,0.2l0.5-0.7c-0.7,0-2.5,0.9-2.5,0.9c-0.6,0.6-1.2,1.2-1.7,1.8c-0.1-0.2-0.2-0.3-0.3-0.5
		c-2.4-3.7-8.4-9-11.4-11.9c-5.1-2.7-6.2,2.4-6.2,2.8c-0.3,5,2.9,5.5,6.2,11.7c-1.6-3.1,3,0.2,5,4.3l-0.9,0.8l-0.3,0.4
		c-0.1,0.3,0.1,0.3,0.3,0.3c-0.2,0-0.5,0.2-0.7,0.3c-0.1,0.2-0.2,0.3-0.4,0.5c0.1-0.1,0.2-0.2,0.3-0.4l0.1-0.1l0.4-0.5l0.1-0.1
		l0.1-0.2l-2.4,2.2c-0.2,0.2-0.3,0.4-0.4,0.5c-0.5,0.6-0.9,1.3-1.6,1.3l-0.4,0.4h0.1l-0.2,0.1l-1.8,1.6c-1.2,1.1-2.4,2.2-3.6,3.2
		c-1.1,1-2.1,1.9-3.1,2.9c-5.5-6.1-11.3-11.3-16.1-18.3c0.8-1.3,1.7-2.7,2.5-3.9h-0.1c-0.9,1-1.9,1.9-3.4,2.5c0.6-0.2,0.7,0,0.3,0.5
		c-0.1-0.2-0.3-0.4-0.4-0.6c0.6-0.8,1.2-1.6,2.3-1.8c0,0,0.2-0.5,0.3-0.8c0.4-0.2,0.6,0.1,0.8,0.2l0.5-0.7c-0.8,0.1-2.5,0.9-2.5,0.9
		c-0.6,0.6-1.1,1.2-1.7,1.8c-0.1-0.2-0.2-0.3-0.3-0.5C360,14.3,354,9,351,6.1c-5.1-2.8-6.2,2.4-6.2,2.8c-0.2,5,3,5.5,6.3,11.6
		c-1.6-3.1,3,0.2,5,4.3l-0.9,0.8l-0.3,0.4l0,0c-0.1,0.3,0.1,0.3,0.3,0.3c-0.3,0.1-0.5,0.2-0.8,0.3c-0.1,0.2-0.2,0.3-0.4,0.5
		c0.1-0.1,0.2-0.2,0.3-0.4l0.1-0.1l0.4-0.5l0.1-0.2l0.1-0.2l-2.4,2.2c-0.1,0.2-0.3,0.4-0.4,0.6c-0.4,0.6-0.9,1.3-1.6,1.2l-0.4,0.4
		h0.2l-0.2,0.1l-1.8,1.6c-1.2,1-2.4,2.1-3.6,3.2c-7,6.2-13.1,12.5-20.1,19c-1.5-1-3-1.9-4.5-3c-0.5-0.4-0.8-0.8-1.1-1.3
		c0.4,0.6,0.8,1.2,1.3,1.9c0.5,1,2.4,0.9,3.7,2c0.3,0.1-0.4,0.7,0,1c-0.6,0.6-1.2,1.2-1.9,1.7c-0.2,0.2-0.3,0.3-0.4,0.4
		c-0.1-0.1-0.2-0.2-0.3-0.3c0.1,0.1,0.2,0.2,0.3,0.3c-4.2,3.8-8.3,7.4-12.5,10.7c-1.2,1-2.3,1.9-3.4,2.9c-1.1-0.9-2.2-1.7-3.3-2.4
		c1.1,1,2.1,1.8,3.1,2.6c-0.3,0.3-0.6,0.5-0.9,0.8c-0.1-0.5-0.2-1.2-0.6-1.3c-0.8-0.8-1.8-1.2-2.9-1.9c-0.5-0.2,0.2-0.9,0-1
		c-1.4-1-3.2-1-3.7-2c-0.5-0.7-0.9-1.3-1.3-1.9c-0.3-0.4-0.6-0.7-0.9-1l-0.8-0.5c-2-1.1-4.2-2.6-6.1-3.9v0.1
		c1.1,0.9,1.9,1.9,2.5,3.4c-0.2-0.6,0-0.7,0.5-0.3v0.7c-1.1-0.7-2.1-1.3-2.5-2.7c0,0-0.5-0.2-0.8-0.3c-0.2-0.4,0.1-0.6,0.2-0.8
		l-0.7-0.5c0.1,0.8,0.9,2.5,0.9,2.5c2.5,2.5,4.8,4.8,7,7.2c0.3,0.1,0.6,0,0.8,0.3c0,0.3,0.1,0.6,0.3,0.8l0.9,1l0.4,0.3l0,0
		c0.3,0.1,0.3-0.1,0.3-0.3c0,0.2,0.2,0.5,0.3,0.7c0.2,0.1,0.3,0.3,0.5,0.4c-0.1-0.1-0.2-0.2-0.4-0.3l-0.1-0.1l-0.5-0.4l-0.2-0.1
		l-0.2-0.1l2.2,2.4c0.2,0.1,0.4,0.3,0.5,0.4c0.6,0.5,1.3,0.9,1.3,1.6l0.2,0.3c-5.3,5.2-10.4,10.4-17.1,14.7
		c-3.7,2.4-8.9,8.5-11.8,11.5c-2.7,5.2,2.4,6.3,2.8,6.2c5,0.3,5.5-3,11.5-6.3c-3.5,1.8,1.3-4.5,6.1-5.8c6.2-1.5,10.2-8,15.1-13
		c3.5,3.9,7,7.7,10.6,11.4c-2.8,2.7-5.8,6-7.6,8c-2.7,5.2,2.4,6.2,2.8,6.2c5,0.2,5.5-3,11.5-6.3c-1.6,0.8-1.5,0-0.4-1.3
		c0.9,1,1.9,2,2.8,3.1c3.9,4.4,7.6,8.7,11.1,13.1c6.4,8,13.7,13.9,19.5,22.3c-0.8,1.3-1.7,2.6-2.5,3.9h0.1c0.9-1,1.9-1.9,3.4-2.5
		c-0.6,0.3-0.7,0-0.3-0.5c0.1,0.2,0.2,0.4,0.4,0.6c-0.6,0.9-1.2,1.6-2.3,1.9c0,0-0.2,0.5-0.3,0.8c-0.4,0.2-0.6,0-0.8-0.2l-0.5,0.6
		c0.8,0,2.5-0.9,2.5-0.9c0.6-0.6,1.2-1.2,1.7-1.8c0.1,0.2,0.2,0.3,0.3,0.5c2.4,3.7,8.3,9,11.4,11.9c5.1,2.7,6.2-2.5,6.2-2.8
		c0.2-5-3-5.5-6.2-11.7c1.6,3.1-3-0.2-5-4.3l0.9-0.8l0.3-0.4l0,0c0.1-0.3-0.1-0.3-0.3-0.3c0.2-0.1,0.5-0.2,0.7-0.3
		c0.1-0.1,0.2-0.3,0.4-0.5c-0.1,0.1-0.2,0.3-0.3,0.4l-0.1,0.1l-0.4,0.5l0,0l0,0l-0.1,0.1l-0.1,0.2l2.4-2.2c0.2-0.2,0.3-0.4,0.4-0.5
		c0.4-0.6,0.9-1.3,1.6-1.3l0.4-0.4h-0.1l0.2-0.1l1.8-1.7c1.2-1,2.4-2.1,3.6-3.2c1.1-0.9,2.1-1.9,3.1-2.8
		c5.5,6.1,11.3,11.3,16.1,18.3c-0.8,1.3-1.7,2.6-2.5,3.9l0.1,0.1c0.9-1.1,1.9-2,3.3-2.5c-0.6,0.3-0.7,0-0.3-0.5
		c0.1,0.2,0.2,0.4,0.4,0.6c-0.6,0.9-1.2,1.6-2.3,1.9c0,0-0.2,0.5-0.3,0.8c-0.4,0.2-0.6-0.1-0.8-0.2l-0.5,0.6
		c0.8-0.1,2.5-0.9,2.5-0.9c0.6-0.6,1.2-1.2,1.7-1.8c0.1,0.2,0.2,0.3,0.3,0.5c2.4,3.7,8.4,9,11.4,11.9c5.1,2.8,6.2-2.4,6.2-2.8
		c0.2-5-3-5.5-6.2-11.6c1.6,3.1-3-0.2-5.1-4.4l0.9-0.9l0.3-0.4c0.1-0.3-0.1-0.3-0.3-0.3c0.3,0,0.5-0.2,0.7-0.3
		c0.1-0.2,0.2-0.3,0.4-0.5c-0.1,0.1-0.2,0.2-0.2,0.4l-0.1,0.1l-0.4,0.6l-0.1,0.2l2.3-2.2c0.2-0.2,0.3-0.4,0.4-0.5
		c0.4-0.6,0.9-1.3,1.6-1.3l0.4-0.4H411l0.2-0.1l1.8-1.6c1.2-1.1,2.4-2.1,3.6-3.2c7-6.2,13.1-12.5,20-19c1.5,1,3,1.9,4.5,3
		c0.5,0.4,0.8,0.8,1.1,1.3c-0.4-0.6-0.8-1.3-1.3-2c-0.5-1-2.4-0.9-3.7-2c-0.2-0.1,0.4-0.7,0-1c0.6-0.6,1.2-1.1,1.9-1.7
		c0.2-0.1,0.3-0.3,0.5-0.4c0.1,0.1,0.2,0.2,0.3,0.3c-0.1-0.1-0.2-0.2-0.3-0.3c4.2-3.8,8.3-7.4,12.5-10.8c1.1-1,2.3-1.9,3.4-2.9
		c1.1,0.9,2.2,1.7,3.3,2.4c-1.1-1-2.1-1.8-3.1-2.6c0.3-0.3,0.6-0.5,0.9-0.8c0.1,0.5,0.1,1.2,0.5,1.3c0.8,0.8,1.9,1.2,3,1.9
		c0.5,0.2-0.2,0.9,0,1c1.3,1,3.2,1,3.7,2c0.5,0.7,0.9,1.3,1.3,1.9c0.3,0.4,0.6,0.7,0.9,1l0.8,0.5c2,1.2,4.2,2.6,6.1,3.9v-0.1
		c-1.1-0.9-1.9-1.9-2.5-3.4c0.3,0.6,0,0.7-0.5,0.3v-0.8c1.1,0.7,2.1,1.3,2.4,2.7c0,0,0.6,0.2,0.8,0.3c0.2,0.4-0.1,0.6-0.2,0.9
		l0.6,0.5c0-0.8-0.8-2.5-0.8-2.5c-2.5-2.5-4.8-4.8-7-7.2c-0.3,0-0.6,0-0.8-0.3c0-0.3-0.2-0.6-0.2-0.8l-1-1l-0.4-0.3
		c-0.3-0.1-0.3,0.1-0.3,0.3c-0.1-0.2-0.2-0.5-0.3-0.7c-0.1-0.1-0.3-0.2-0.5-0.4c0.1,0.1,0.3,0.2,0.4,0.3l0.1,0.1l0.5,0.4l0,0
		l0.1,0.1l0.2,0.1l-2.1-2.4c-0.2-0.2-0.4-0.3-0.5-0.4c-0.7-0.5-1.3-0.9-1.2-1.6l-0.2-0.3c5.3-5.2,10.4-10.4,17.1-14.7
		c3.7-2.4,8.9-8.5,11.8-11.5C491,53.6,485.9,52.5,485.5,52.5L485.5,52.5z M431.5,96.6c0.3,0.2,0.6,0.4,0.9,0.6
		c-0.1,0.1-0.2,0.1-0.2,0.2c-0.1-0.1-0.1-0.3-0.1-0.4c0.1,0.2,0.1,0.4,0.1,0.5c0,0,0,0.1-0.1,0.1s-0.3-0.1-0.6-0.3L431.5,96.6
		L431.5,96.6z M414.6,124.8c0.4-0.7,1.2-1.2,2.2-1.4C416.4,124.4,415.4,124.7,414.6,124.8L414.6,124.8z M388.4,113.8
		c4-3.8,7.9-7.7,12.3-11.7c4.4-4,8.7-7.7,13-11.2c1.2-0.9,2.3-1.9,3.4-2.9c1.1,0.9,2.2,1.7,3.3,2.4c-1.1-1-2.1-1.8-3.1-2.6
		c0.3-0.3,0.6-0.5,0.9-0.8c0.1,0.5,0.1,1.1,0.5,1.3c0.8,0.8,1.9,1.2,2.9,1.9c0.5,0.2-0.2,0.9,0,1c1.3,1,3.2,1,3.7,2
		c0.4,0.7,0.9,1.3,1.3,1.9c0.3,0.4,0.6,0.7,0.9,1l0.8,0.5c1,0.5,1.9,1.2,2.9,1.8c-0.4,0.4-0.7,0.8-1.1,1.2c-0.1,0-0.1,0.1-0.1,0.1
		c-3.4,3.7-6.9,7.5-10.7,11.3c-2.4,2.5-3.9,5.3-5.6,7.7c-1.4,1.6-3.3,2.9-4.5,4.1c-1.9,1.9-3.3,3.9-4.6,5.8c1.6-1.9,2.7-3.4,4.6-5.5
		c1.2-1.4,0,1.9-0.7,2.9c-0.2,0.5-1.6,0.3-1.8,0.9c-0.8,0.8-1.2,1.9-1.9,3c-0.2,0.5-0.9-0.3-1,0c-0.2,0.2-0.3,0.4-0.4,0.6
		c-2.8-6.1-10.2-10.2-14.6-15.9C388.8,114.3,388.6,114.1,388.4,113.8L388.4,113.8z M376.2,124.2c0.4-0.7,1.2-1.2,2.2-1.5
		C377.9,123.7,377,124,376.2,124.2L376.2,124.2z M332.6,95.1c5.8-1.8,9.7-8,14.3-12.7c6.4,7.2,12.9,13.6,19.7,21.1
		c3.6,4.1,7.1,8.1,10.3,12.2c-0.5,0.8-1,1.6-1.6,2.4c-1.4,1.6-3.3,2.9-4.5,4.1c-1.9,1.9-3.3,3.8-4.5,5.8c1.6-1.9,2.7-3.4,4.6-5.5
		c1.2-1.4,0,1.9-0.7,2.9c-0.2,0.5-1.6,0.3-1.8,0.9c-0.8,0.8-1.2,1.9-1.9,3c-0.2,0.5-0.9-0.2-1,0c-0.2,0.2-0.3,0.4-0.3,0.5
		c-2.8-6.1-10.2-10.1-14.6-15.8c-1.2-1.6-2.9-3-4.5-4.7C341.9,104,337.3,99.5,332.6,95.1L332.6,95.1z M328.7,62.4
		c1.9,1.9,3.7,3.8,5.4,5.6c0.3,0,0.6,0,0.7,0.3c0.1,0.3,0.2,0.5,0.3,0.8l1,1l0.4,0.3l0,0c0.3,0.1,0.3,0,0.3-0.3
		c0.1,0.3,0.1,0.5,0.3,0.7c0.1,0.1,0.3,0.2,0.4,0.4c-0.1-0.1-0.3-0.2-0.3-0.3c-0.1,0-0.1-0.1-0.1-0.1l-0.5-0.4l-0.1-0.1l-0.2-0.1
		l2.2,2.4c0.2,0.2,0.4,0.3,0.5,0.4c0.7,0.5,1.3,0.9,1.3,1.6l0.2,0.2c-4.8,4.6-9.3,9.3-15,13.3c-1.8-1.7-3.5-3.5-5.3-5.3
		c-2.3-2.3-4.9-3.7-7.2-5.3c1-1,2-2.1,3.1-3.1C320.7,70.8,324.7,66.7,328.7,62.4L328.7,62.4z M329.9,62.7c-0.3-0.2-0.7-0.4-1-0.6
		c0.1-0.1,0.2-0.2,0.2-0.2c0.1,0.1,0.1,0.2,0.2,0.4c-0.1-0.2-0.1-0.4-0.1-0.5l0.1-0.1c0.1,0,0.3,0.1,0.5,0.2L329.9,62.7L329.9,62.7z
		 M346.8,34.4c-0.4,0.7-1.2,1.3-2.1,1.5C345,34.9,345.9,34.6,346.8,34.4L346.8,34.4z M373,45.4c-4,3.8-7.9,7.7-12.2,11.7
		c-4.4,4-8.7,7.7-13,11.2c-1.2,1-2.3,1.9-3.4,2.9c-1.1-0.9-2.2-1.7-3.3-2.4c1.1,1,2.1,1.8,3.1,2.6c-0.3,0.3-0.6,0.6-0.9,0.8
		c-0.1-0.5-0.1-1.2-0.5-1.3c-0.8-0.8-1.9-1.2-3-1.9c-0.5-0.2,0.2-0.9,0-1c-1.4-1-3.2-1-3.8-1.9c-0.4-0.7-0.9-1.3-1.2-1.9
		c-0.3-0.4-0.6-0.7-0.9-1l-0.8-0.5c-1-0.5-1.9-1.2-2.9-1.8c0.4-0.4,0.7-0.8,1.1-1.2c0.1,0,0.1-0.1,0.1-0.1
		c3.4-3.7,6.9-7.5,10.8-11.3c2.4-2.5,3.9-5.3,5.5-7.7c1.4-1.6,3.3-2.9,4.5-4.1c1.9-1.9,3.3-3.9,4.5-5.8c-1.6,1.9-2.7,3.4-4.6,5.5
		c-1.3,1.4,0-1.9,0.6-2.9c0.2-0.5,1.6-0.3,1.8-0.8c0.8-0.8,1.2-1.9,1.9-3c0.2-0.5,0.9,0.2,1,0c0.1-0.2,0.3-0.4,0.4-0.6
		c2.8,6.1,10.2,10.2,14.6,15.9C372.6,44.9,372.8,45.2,373,45.4L373,45.4z M402.9,75.7c2.3,2.3,4.9,3.7,7.2,5.3c-1,1-2,2.1-3.1,3.1
		c-8.9,7.2-15.5,15.7-23.8,24.1c-7.5-8.9-16.2-15.6-24.6-24.5c-2.3-2.3-4.8-3.7-7.1-5.3c1-1,2-2.1,3.1-3.1
		c8.9-7.2,15.4-15.7,23.8-24.1C385.7,60,394.5,66.7,402.9,75.7L402.9,75.7z M385.2,35.1c-0.4,0.7-1.2,1.3-2.1,1.5
		C383.4,35.5,384.3,35.2,385.2,35.1L385.2,35.1z M428.8,64.2c-5.7,1.8-9.6,8-14.3,12.7c-6.4-7.2-12.9-13.6-19.7-21.1
		c-3.7-4.1-7.1-8.1-10.3-12.2c0.5-0.8,1-1.6,1.5-2.4c1.4-1.6,3.3-2.9,4.5-4.1c1.9-1.9,3.3-3.9,4.5-5.8c-1.6,1.9-2.7,3.4-4.6,5.5
		c-1.3,1.4,0-1.9,0.6-2.9c0.2-0.5,1.6-0.3,1.8-0.8c0.8-0.8,1.2-1.9,1.9-3c0.2-0.5,0.9,0.2,1,0c0.1-0.2,0.2-0.4,0.3-0.6
		c2.8,6.1,10.2,10.1,14.6,15.9c1.2,1.6,2.8,3,4.5,4.7C419.5,55.3,424,59.7,428.8,64.2L428.8,64.2z M448.4,81.6c-1,1-2,2.1-3.2,3.1
		c-4.6,3.8-8.6,7.9-12.6,12.2c-1.9-1.9-3.7-3.8-5.4-5.6c-0.3,0-0.6,0-0.8-0.3c0-0.3-0.2-0.6-0.3-0.8l-0.9-1l-0.4-0.3
		c-0.3-0.1-0.3,0.1-0.3,0.3c-0.1-0.3-0.2-0.5-0.4-0.8c-0.1-0.1-0.3-0.2-0.4-0.4c0.1,0.1,0.2,0.2,0.3,0.3l0.1,0.1l0.7,0.5L425,89
		l-2.2-2.4c-0.2-0.2-0.4-0.3-0.5-0.4c-0.6-0.5-1.3-0.9-1.2-1.6l-0.2-0.3c4.8-4.6,9.3-9.3,15-13.3c1.8,1.7,3.6,3.5,5.3,5.3
		C443.5,78.6,446.1,80,448.4,81.6L448.4,81.6z M440.7,103.2l-0.2-0.1l0.4,0.3L440.7,103.2L440.7,103.2z M440.5,103.1l-0.7-0.5
		c0.2,0.2,0.3,0.5,0.3,0.8C440.1,103.2,440.2,103,440.5,103.1L440.5,103.1z M320.7,56l0.2,0.1l-0.4-0.3L320.7,56L320.7,56z
		 M320.9,56.1l0.6,0.5c-0.2-0.2-0.2-0.5-0.3-0.7C321.2,56.1,321.1,56.3,320.9,56.1L320.9,56.1L320.9,56.1z M419.2,1.3l0.5-0.7l0,0
		L419.2,1.3L419.2,1.3L419.2,1.3z M415.8,3.8c1.5-0.6,2.5-1.5,3.4-2.5c-0.3-0.1-0.5-0.4-0.9-0.2c-0.1,0.3-0.3,0.8-0.3,0.8
		c-1.3,0.3-2.1,1.4-2.7,2.5h0.7C416.5,3.8,416.4,3.5,415.8,3.8L415.8,3.8z M412.6,10.4c0.4-0.5,0.8-0.8,1.3-1.1
		c-0.6,0.4-1.2,0.8-2,1.3c-0.9,0.6-0.9,2.4-1.9,3.8c-0.1,0.3-0.8-0.5-1,0c-0.7,1.1-1.1,2.2-1.9,3c-0.2,0.5-1.6,0.3-1.8,0.8
		c-0.7,1.1-1.9,4.3-0.6,2.9c1.9-2.1,3-3.6,4.6-5.5C410.4,13.9,411.4,12.2,412.6,10.4L412.6,10.4z M409.8,9.3
		c0.3-0.1,0.3-0.4,0.3-0.8l-1.1,1C409.2,9.5,409.4,9.4,409.8,9.3L409.8,9.3z M407.9,11.3c-0.2,0-0.4,0-0.3-0.3l-0.5,0.7
		C407.4,11.5,407.7,11.4,407.9,11.3L407.9,11.3z M407.6,11L407.6,11L407.6,11L407.6,11L407.6,11z M407.7,10.7l-0.1,0.2l0.3-0.4
		L407.7,10.7L407.7,10.7z M380.8,0.7l0.5-0.7l0,0L380.8,0.7L380.8,0.7L380.8,0.7z M377.4,3.2c1.5-0.6,2.5-1.5,3.4-2.5
		c-0.2-0.1-0.5-0.4-0.9-0.2c-0.1,0.3-0.3,0.8-0.3,0.8c-1.3,0.3-2,1.4-2.7,2.5h0.7C378.1,3.2,378,2.9,377.4,3.2L377.4,3.2z
		 M374.2,9.8c0.4-0.5,0.8-0.8,1.3-1.1c-0.6,0.4-1.2,0.8-1.9,1.3c-1,0.5-0.9,2.4-1.9,3.8c-0.1,0.3-0.8-0.5-1,0
		c-0.7,1.1-1.1,2.2-1.9,3c-0.2,0.5-1.6,0.3-1.8,0.9c-0.6,1.1-1.9,4.3-0.6,2.9c1.9-2.1,2.9-3.6,4.6-5.5C372,13.2,373,11.5,374.2,9.8
		L374.2,9.8z M371.3,8.7c0.3-0.2,0.3-0.4,0.3-0.8l-1.1,1C370.8,8.8,371,8.7,371.3,8.7L371.3,8.7z M369.5,10.7
		c-0.2,0-0.4-0.1-0.3-0.3l-0.4,0.6C369,10.8,369.3,10.7,369.5,10.7L369.5,10.7z M369.2,10.3L369.2,10.3L369.2,10.3L369.2,10.3
		L369.2,10.3z M369.2,10.3l0.3-0.4l-0.2,0.2L369.2,10.3L369.2,10.3z M314.4,48.4v-0.7c-0.5-0.5-0.8-0.3-0.5,0.3
		c-0.6-1.5-1.4-2.5-2.5-3.4c-0.1,0.2-0.4,0.5-0.2,0.8c0.2,0.1,0.8,0.3,0.8,0.3C312.2,47,313.3,47.7,314.4,48.4L314.4,48.4z
		 M310.7,44l0.6,0.5v-0.1L310.7,44L310.7,44L310.7,44z M282.8,55.2c0,0.2-0.1,0.4-0.3,0.3l0.7,0.5C283,55.7,282.9,55.5,282.8,55.2
		L282.8,55.2z M282.5,55.5l-0.4-0.3l0.2,0.2L282.5,55.5L282.5,55.5z M280.9,53.4c-0.1-0.3-0.4-0.3-0.8-0.3l1,1.1
		C281,53.9,280.9,53.7,280.9,53.4L280.9,53.4z M289.7,57.8c1.1,0.7,4.3,1.9,2.9,0.7c-2.1-1.9-3.6-3-5.5-4.6
		c-1.7-1.2-3.4-2.2-5.2-3.4c-0.4-0.4-0.8-0.8-1.1-1.3c0.4,0.6,0.8,1.3,1.3,1.9c0.6,1,2.4,1,3.8,2c0.3,0.1-0.5,0.8,0,1
		c1.1,0.7,2.1,1.1,3,1.9C289.4,56.2,289.1,57.6,289.7,57.8L289.7,57.8z M276,47.7V47c-0.5-0.5-0.8-0.3-0.5,0.3
		c-0.6-1.5-1.5-2.5-2.5-3.4c-0.1,0.3-0.4,0.5-0.2,0.9c0.3,0.1,0.8,0.3,0.8,0.3C273.8,46.4,274.9,47,276,47.7L276,47.7z M272.3,43.3
		l0.6,0.5l0.1-0.1L272.3,43.3L272.3,43.3L272.3,43.3z M342.1,157.9l-0.5,0.7l0,0L342.1,157.9L342.1,157.9L342.1,157.9z M345.6,155.4
		c-1.5,0.6-2.5,1.5-3.4,2.5c0.3,0.2,0.5,0.4,0.9,0.2c0.1-0.3,0.3-0.8,0.3-0.8c1.3-0.3,2-1.4,2.7-2.5l-0.7,0.1
		C344.8,155.4,345,155.7,345.6,155.4L345.6,155.4z M348.7,148.8c-0.4,0.4-0.8,0.8-1.2,1.1c0.6-0.4,1.2-0.8,1.9-1.3
		c1-0.6,0.9-2.4,2-3.8c0.1-0.3,0.8,0.5,1,0c0.7-1.1,1.1-2.2,1.9-3c0.2-0.5,1.6-0.3,1.8-0.9c0.7-1.1,1.9-4.3,0.7-2.9
		c-1.9,2.1-2.9,3.6-4.5,5.5C351,145.4,350,147.1,348.7,148.8L348.7,148.8z M351.6,149.9c-0.3,0.1-0.3,0.4-0.3,0.7l1.1-1.1
		C352.2,149.8,351.9,149.9,351.6,149.9L351.6,149.9z M353.7,148.3L353.7,148.3l0.5-0.6c-0.3,0.2-0.5,0.3-0.7,0.3
		C353.7,148,353.8,148,353.7,148.3L353.7,148.3z M353.7,148.3l-0.3,0.4l0.2-0.2L353.7,148.3L353.7,148.3z M380.5,158.6l-0.5,0.7l0,0
		L380.5,158.6L380.5,158.6L380.5,158.6z M384,156.1c-1.4,0.6-2.5,1.5-3.4,2.5c0.3,0.1,0.5,0.4,0.8,0.2c0.1-0.3,0.3-0.8,0.3-0.8
		c1.3-0.3,2-1.4,2.7-2.5h-0.7C383.2,156.1,383.4,156.4,384,156.1L384,156.1z M387.2,149.5c-0.4,0.4-0.8,0.8-1.3,1.1
		c0.6-0.4,1.2-0.8,1.9-1.3c1-0.6,1-2.4,2-3.8c0.1-0.3,0.8,0.5,1,0c0.7-1.1,1.1-2.1,1.9-3c0.2-0.5,1.6-0.3,1.8-0.9
		c0.7-1.1,1.9-4.3,0.6-2.9c-1.9,2.1-3,3.6-4.6,5.5C389.4,146,388.4,147.7,387.2,149.5L387.2,149.5z M390,150.6
		c-0.3,0.2-0.3,0.5-0.3,0.8l1.1-1C390.6,150.4,390.3,150.5,390,150.6L390,150.6z M391.9,148.6c0.2,0,0.4,0.1,0.3,0.3l0.4-0.7
		C392.4,148.4,392.1,148.5,391.9,148.6L391.9,148.6z M392.1,148.9l-0.3,0.4l0.2-0.2L392.1,148.9L392.1,148.9z M447,110.9v0.8
		c0.5,0.5,0.8,0.3,0.5-0.3c0.6,1.4,1.4,2.5,2.5,3.4c0.1-0.2,0.4-0.5,0.2-0.8c-0.3-0.1-0.8-0.3-0.8-0.3
		C449.1,112.2,448.1,111.6,447,110.9L447,110.9z M450.7,115.3l-0.6-0.5v0.1L450.7,115.3L450.7,115.3L450.7,115.3z M478.9,103.8
		L478.9,103.8l-0.7-0.5c0.2,0.3,0.3,0.5,0.3,0.8C478.5,103.8,478.6,103.6,478.9,103.8L478.9,103.8z M478.9,103.8l0.4,0.3l-0.2-0.2
		L478.9,103.8L478.9,103.8z M480.5,105.9c0.1,0.3,0.4,0.3,0.8,0.3l-1-1.1C480.4,105.3,480.5,105.6,480.5,105.9L480.5,105.9z
		 M471.7,101.4c-1.1-0.6-4.3-1.9-2.9-0.6c2.1,1.9,3.5,3,5.5,4.6c1.7,1.1,3.4,2.2,5.1,3.4c0.4,0.4,0.8,0.8,1.1,1.2
		c-0.4-0.6-0.8-1.2-1.3-1.9c-0.6-1-2.4-0.9-3.7-2c-0.2-0.1,0.5-0.8,0-1c-1.1-0.7-2.1-1.1-2.9-1.9C472,103,472.2,101.6,471.7,101.4
		L471.7,101.4z M485.4,111.5v0.7c0.5,0.5,0.8,0.3,0.5-0.3c0.6,1.5,1.5,2.5,2.5,3.4c0.1-0.3,0.4-0.5,0.2-0.8
		c-0.3-0.1-0.8-0.3-0.8-0.3C487.5,112.9,486.5,112.2,485.4,111.5L485.4,111.5z M489.1,115.9l-0.6-0.5v0.1L489.1,115.9L489.1,115.9
		L489.1,115.9z"/>
	<path class="st3" d="M798.1,225.6c-0.5,0.6-4.3,3.4-4.3,3.4c-6.3,4.1-8.8,0.8-4.8-2.8c4-3.7,2.4-4.4,2.4-4.4
		c-4.1-1.9-6.9,2.6-6.9,2.6s1.3-0.3,2.7-0.6s2.1,0.2,2.1,0.2c-7.1,6.6-4,8.1-4,8.1c5.7,2.7,10.3-2.8,13-5.5
		C800.8,223.9,798.1,225.6,798.1,225.6L798.1,225.6z M798,201.7l1-6.7c-12-2.1-31.9-8.4-42.9-8.4s-9.7,16.8-8.7,20.5
		c0.2,0.6,0.4,1.5,0.6,2.5c0,0-4.9-2.2-6.1-13.1c0-0.3-5.8-61.3-10.8-85.3l-2,7c0,0,2.8,11.7,4.2,30.6c1.8,15.8,5.8,47.6,5.8,48.6
		c1.3,11.6,4.9,16.7,9.6,19.3c0.2,0.1,0.4,0.3,0.6,0.4c0.4,2.5,0.7,6.1,0.7,6.1c0.1,0.9,0.7,1.3,1,0c0.3-1.2,0.1-5.3,0.1-5.3
		c1.7,0.8,3.8,1.1,6.3,0.9c0.7,0,1.2-0.1,1.7-0.2c3.9-0.7,8.8-2.6,14.6-6.2C784.6,205.6,798,201.7,798,201.7L798,201.7z
		 M786.9,199.1c0,0-11.8,5.4-15.4,7.6c-3.7,2.2-13.5,7.4-21.1,4c0,0-0.9-5.9-1.4-7.9s-0.5-10.2,6.5-9.6
		C762.5,193.8,767.6,194.3,786.9,199.1L786.9,199.1z M775.2,152.8c-2.6,3.4,2.8,7.5,2.8,7.5c0.7-0.7,1-0.1,1-0.1
		c2.1,2,4.1,8.3,4.3,9.5s0.5,2.4,1.3,1.4c0.8-0.9,2.9-11.4,4.1-14.8c1.2-3.4,5.5,0.6,5.5,0.6l1.8-3.9c-0.1-0.2-2.4-6.4-5.7-3
		s-5.2,14.6-5.2,14.6l-0.5,0.5c0,0-2.1-7.4-4.8-11.8C777.1,149.1,775.2,152.8,775.2,152.8L775.2,152.8z M755.4,154.8
		c3.4,6.3,6.5,13.8,4.9,23.1c-0.3,1.9-0.5,1.9,0,1.9c1.6,0,6.3-15.2-4.2-32.9L755.4,154.8L755.4,154.8z M796.8,124.2l2.1-3.3
		l-50.6,19.5L746,144L796.8,124.2L796.8,124.2z M755.1,126l-0.4-0.6c0,0-3.3,5.5-4.7-0.2c-1.4-5.6,4.2-11.3,4.2-11.3
		s1.4-2.8-0.6-0.6c-1.9,2.1-9.4,13.8-3.1,18C750.6,131.4,755,132.4,755.1,126L755.1,126z M730.9,193.2c-5-2-9.5,6.5-9.5,6.5
		c-1.3,0-2.1,1.1-3.7,3.9c-1.7,2.8-4.5,7.3-10.9,7.3s-13.6-4.2-13.6-4.2c0.7-0.7,8.7-4.4,8.7-4.4l2.2-6.8
		c-17.8-8.5-32.7,1.5-32.7,1.5l-2.1,6.7c7.6-3.6,12.9,2.9,12.9,2.9s-7.6,7-17.2,5.4c-12.1-2-11-7.4-15.9-12.3
		c-4.9-5-10.8,1.4-12.9,4.9c-2.1,3.5-5.3,10.2-7.2,15.8c-2.3,6.8-5,8.9-10.1,4.6c-4.9-3.9-4.1-18.9-4.1-21.2s0-5.5-0.9-2.3
		c-0.8,3.2-1.8,21.9,4.6,28.4c6.5,6.5,10.6,0,12.1-2.6c1.4-2.6,3.9-11.4,7.5-16.8c3.6-5.4,7.8-5.4,9.6-2.2s7,11.6,17.1,11.6
		c10,0,22.4-10,22.4-10c8.7,6.2,14,8.7,20.5,8.7s11.6-11.3,11.6-11.3s5.7,4.5,10.1,6.3c4.3,1.7,6.3-2.5,6.9-5
		C736.6,206.1,735.9,195.2,730.9,193.2L730.9,193.2z M688.7,203.3l-4.3-3.2c4.3-1.8,10.1-0.2,10.1-0.2L688.7,203.3L688.7,203.3z
		 M730.9,205.8c-4.1-0.6-7.1-4.2-7.1-4.2C730.2,197.9,730.9,205.8,730.9,205.8L730.9,205.8z M709,167.9c0-3.2,6.4-2.9,6.4-2.9
		l1.4-3.4c-4.4-7.3-6.1-5.1-7.9-2.4c-1.8,2.7,0,1.7,0,1.7c4.5-2.4,3.7,0.5,3.7,0.5c-3.8,0.9-5.8,6.7-5,10c0.9,3.4,2.9,18.9,2.9,21.1
		c0,2.2,0.5,2.6,0.5,2.6C712.2,189.7,709,171.2,709,167.9L709,167.9z M718.8,140.9l1.5-3.6c-0.1-0.2-2-6-4.7-2.8s-4.2,13.7-4.2,13.7
		l-0.4,0.5c0,0-1.7-7-3.9-11.1c-2.2-4.2-3.7-0.7-3.7-0.7c-2.1,3.3,2.2,7,2.2,7c0.6-0.7,0.8-0.1,0.8-0.1c1.7,1.9,3.3,7.9,3.5,9
		s0.4,2.3,1,1.4c0.6-0.9,2.4-10.8,3.4-13.9C715.3,137.2,718.8,140.9,718.8,140.9L718.8,140.9z M675.1,167
		c-1.6-5.8,4.7-11.7,4.7-11.7s1.6-2.9-0.6-0.7c-2.2,2.2-10.5,14.3-3.5,18.6c0,0,5,1,5-5.5l-0.4-0.7
		C680.3,167.1,676.6,172.8,675.1,167L675.1,167z M641.6,168c0,0-1.2,2.8-1.9,4.7c-0.8,1.9,2.8,3.3,3.7,3.8s3.4,1.8,3.4,1.8
		s3-5.3,2.5-6.8c-0.6-1.4-5.5-3.5-6.6-3.8C641.7,167.3,641.6,168,641.6,168L641.6,168z M715.1,126.3l3.4-5.2l-79.8,30.7l-3.7,5.6
		L715.1,126.3L715.1,126.3z M631,168.5c0,0-1.5,4.3-2.2,5.8c-0.6,1.5,0.9,2.5,0.9,2.5s3.8,2.5,4.9,3.2c1.2,0.6,1.7,1.5,3.4-1.7
		c2.1-3.8-0.4-5.4-2.4-6.3C633.7,171,631,168.5,631,168.5L631,168.5z M635.7,123.8c-8.2-4-7.1,4.7-7.1,4.7c0.8,1.2-0.7,2.1-0.7,2.1
		c-5.5,6.2,3.9,6.7,3.9,6.7c-0.3,2.7-6.4,7.8-13,12.6c-2.1-12.5-3.9-22.7-3.9-22.7l2.8,2.5c0,0,1.6,1.7,0.5-1.2
		c-1-2.9-4.9-11.4-7.3-15.4l-1.3,7.6c0,0,1.1,1.2,1.8,5.1c0.4,2.6,2.8,17.1,4.3,26.4c-6.9,4.8-13.4,8.7-13.4,8.7
		c1.6-0.4,7.5-3,7.5-3c2.2-1,4.3-2.3,6.3-3.6c0.6,3.4,0.9,5.8,0.9,5.8s5.6,33.2,5.6,44.7c0,8,2.3,3.6,2.1-9.1
		c0-5.4-0.9-15.5-1.9-21.6c-1.2-7-2.5-14.7-3.7-21.9c8.8-6.6,15.2-14.7,15.2-14.7l5.1,0.5C647.6,138.7,644,127.8,635.7,123.8
		L635.7,123.8z M634.6,132.4c0,0-3.7,2-5.8-1.4c0,0,3.1-6.2,5.6-2.3C634.4,128.8,635.2,131.5,634.6,132.4L634.6,132.4z M642.4,134.6
		c0,0-1.1,0.8-7-1.2c0,0,0.8-3.4,1.8-4.4C637.2,129,640.9,130.4,642.4,134.6L642.4,134.6z M599.6,127.5c-1.5-3.8-7.2-14.9-7.2-14.9
		l-1.8,7.8c0,0,1.2,0.8,1.8,5.5s6.5,34.9,7.9,42.9c2.6,14.9,2.7,14.4,3.2,19.3c0,0-2.9,5.2-8.5,5.8s-8.8-0.6-12.2-4.1
		c0,0,7.2-4.4,5.1-12.1c-2.1-7.7-5.6-13.1-10.7-10.7c-5.8,2.6-1,19.2-0.2,20.8c0,0-6.8,4.8-19.4,7.2c3.6-2.4,6.9-5.4,8.8-9
		c3.5-6.7-0.5-12.4-5.2-14.6c-4.7-2.2-14.6-6.3-26,11.2c-3,4.6-5,8.3-6.4,11.3c-3-1.4-4.4-3.8-5.1-5.5c1.8-3,2.1-5.1,0.1-3.6
		c0,0-7.3,7.1-14.4,7.7c-7.2,0.6-10.5-2.1-13-8.5c-2.4-6.4-8.1-8.2-13.5,2.5c-5.4,10.6-2.6,17.2-2.6,17.2s-7.5,0.1-17.6,7.8
		s-22.1,19.2-29.1,14.3s4.5-22,15-32.6c0.8-0.8,1.3-1.4,1.8-1.9c1.9-0.5,4.2-2.2,4.3-7.3l-0.6-0.9c0,0-5,7.8-7.1-0.2
		c-2.1-7.9,6.4-16,6.4-16s2.1-3.9-0.8-0.9c-3,3-14.3,19.5-4.8,25.4c0,0,0.4,0.1,0.9,0.1c-3.8,3.3-9.9,9.8-13.4,16.3
		c-6.9,12.7-7.9,21.1,0.3,24.7c7.9,3.5,22.4-10.1,26.2-12.9c3.8-2.8,14.5-9.7,20.2-8.2c5.8,1.5,15.3,11.1,15.3,11.1l1.7-8.4
		c0,0-5.2-4.9-9.9-8.3c-4.7-3.4-9.7-8.7-5.9-14.5s9.9-7.1,11.6,0.9c1.6,8.1,10.5,9.7,17.1,7.2c3.7-1.3,7-4.3,9.3-7.3
		c0.7,3.6,3.4,6.6,5.2,8.2c-1.1,3.8-0.6,5.2-0.6,5.2c1.2-2.8,2.1-4,2.1-4c2.4,1.3,4.9,1.7,7.4,1.6c8.2,0.6,29,0.8,44-10.5
		c0,0,4.8,10.7,14.4,9c9.6-1.6,13.8-11.3,11.7-24.5s-9.2-51-9.2-51l2.6,2.6C598.6,128.7,601.2,131.3,599.6,127.5L599.6,127.5z
		 M531.6,195.1c0,0,7.1-13.6,13.8-16.4c6.7-2.8,12.5-2.4,18.7,4.9C564.1,183.6,549.9,197.8,531.6,195.1L531.6,195.1z M579.9,185.7
		c-1.9-3-4.1-9.8-1.1-11.5c4.3-2.7,7,6,7,6C584.2,183.2,579.9,185.7,579.9,185.7L579.9,185.7z M585,151.9c0,0,3-5.4,2.4-6.8
		c-0.6-1.4-5.5-3.5-6.6-3.8s-1.1,0.3-1.1,0.3s-1.2,2.8-1.9,4.7c-0.8,1.9,2.8,3.3,3.7,3.8C582.4,150.6,585,151.9,585,151.9L585,151.9
		z M569.1,142.2c0,0-1.5,4.2-2.1,5.8c-0.7,1.5,0.9,2.5,0.9,2.5s3.8,2.5,4.9,3.2c1.2,0.6,1.7,1.5,3.5-1.6c2.1-3.8-0.4-5.4-2.4-6.4
		C571.7,144.7,569.1,142.2,569.1,142.2L569.1,142.2z M521.4,163.5c-1.6-5.8,4.7-11.7,4.7-11.7s1.6-2.8-0.6-0.6
		c-2.2,2.2-10.4,14.3-3.5,18.6c0,0,5,1.1,5.1-5.5l-0.4-0.6C526.7,163.6,523,169.2,521.4,163.5L521.4,163.5z M582.3,119l3.4-5.2
		l-79.8,30.7l-3.6,5.7L582.3,119L582.3,119z M505,128.9l-0.4-0.6c0,0-3.3,5.5-4.7-0.2c-1.4-5.6,4.2-11.3,4.2-11.3s1.4-2.8-0.5-0.6
		c-2,2.1-9.4,13.9-3.1,18C500.5,134.2,505,135.3,505,128.9L505,128.9z M496.5,144.8c-0.9-0.4-12.4-1.1-12.7-0.9
		c-0.3,0.2-2.8,5.4-3.5,7.2s0,1.6,0.5,0.8c0.5-0.9,0.9-0.6,0.9-0.6c2.1-0.7,9.1,0.5,9.1,0.5c-0.8,1.1-6.8,5-9.2,6.4
		s-0.5,1.4-0.5,1.4C494.5,158.2,497.4,145.2,496.5,144.8L496.5,144.8z M462.8,154.3c0-3.7,7.3-3.3,7.3-3.3l1.7-3.9
		c-5-8.4-7-5.8-9-2.7s0,1.9,0,1.9c5.1-2.7,4.2,0.6,4.2,0.6c-4.3,1-6.7,7.6-5.7,11.5s3.4,21.7,3.4,24.2c0,2.6,0.5,2.9,0.5,2.9
		C466.4,179.1,462.8,157.9,462.8,154.3L462.8,154.3z M473.9,123.3l1.7-4.2c-0.2-0.3-2.2-6.8-5.3-3.2c-3.1,3.6-4.9,15.7-4.9,15.7
		l-0.4,0.6c0,0-1.9-7.9-4.5-12.7c-2.5-4.7-4.3-0.8-4.3-0.8c-2.3,3.7,2.6,8,2.6,8c0.7-0.8,1-0.2,1-0.2c1.9,2.1,3.8,9,4,10.3
		s0.4,2.6,1.2,1.5c0.7-1,2.7-12.3,3.8-15.9C469.9,119,473.9,123.3,473.9,123.3L473.9,123.3z M504.8,225.3c-0.6,1.5,0.9,2.5,0.9,2.5
		s3.8,2.5,4.9,3.2c1.2,0.7,1.7,1.5,3.4-1.7c2.1-3.8-0.4-5.3-2.5-6.4c-2-1-4.7-3.5-4.7-3.5S505.4,223.7,504.8,225.3L504.8,225.3z
		 M517.6,219c0,0-1.2,2.8-1.9,4.7c-0.9,2.3,5.6,4.7,7.2,5.5c0,0,3-5.4,2.4-6.8c-0.6-1.4-5.5-3.5-6.6-3.8
		C517.6,218.3,517.6,219,517.6,219L517.6,219z M531,230.5l-1.6,2.5l34.4-13.4l1.5-2.3L531,230.5L531,230.5z M572.8,214.4
		c-2.1,3.3,2.2,7,2.2,7c0.6-0.7,0.8-0.2,0.8-0.2c1.7,1.9,3.3,7.9,3.5,9s0.4,2.2,1,1.3s2.4-10.7,3.4-13.9c0.9-3.2,4.5,0.6,4.5,0.6
		l1.5-3.6c-0.1-0.2-2-6-4.7-2.8s-4.2,13.8-4.2,13.8l-0.4,0.5c0,0-1.7-6.9-3.9-11.1C574.3,210.9,572.8,214.4,572.8,214.4L572.8,214.4
		z M605.8,214.6c-1.9,2.1-9.4,13.9-3.1,18.1c0,0,4.5,1,4.6-5.3l-0.4-0.6c0,0-3.3,5.5-4.7-0.2c-1.4-5.6,4.3-11.3,4.3-11.3
		S607.8,212.4,605.8,214.6L605.8,214.6z M703.7,230.2l-1.6,2.5l35.2-13.7l1.5-2.3L703.7,230.2L703.7,230.2z M767.4,222
		c0,0-1.2,2.8-1.9,4.7c-0.8,1.9,2.8,3.3,3.7,3.7c0.9,0.5,3.4,1.8,3.4,1.8s3-5.3,2.5-6.8c-0.6-1.4-5.5-3.5-6.6-3.8
		C767.4,221.3,767.4,222,767.4,222L767.4,222z"/>
	<path class="st3" d="M356.3,225.8c-0.7-1.6-1-5.2-1-10.8v-23.1h-15.4v1.7h5.8v19.2c-2.5,4.7-5.4,7-8.7,7c-1.3,0-2.2-0.4-2.5-1.1
		c-0.3-0.7-0.5-2.7-0.5-5.9v-20.9h-15.2v1.7h5.9v15.6c0,4.5,0.5,7.5,1.4,8.9c1.6,2.5,4.5,3.8,8.6,3.8c4.2,0,7.9-1.8,10.9-5.4v8.2
		c0,4.2-0.3,6.9-0.9,8c-0.9,1.8-2.6,2.8-5,2.8c-1.9,0-3.8-0.6-5.8-1.8s-3.3-2.5-3.9-3.8l-0.8-0.5l-2.7,3.8c3.1,2.7,7,4,11.7,4
		C346.1,237,352,233.3,356.3,225.8L356.3,225.8z M307.8,217c-0.1,0.4-0.1-1.1-0.1-4.3l0.1-19.1c3.7,0,6.2,1.4,7.4,4.2h1.7v-5.9h-9.1
		v-30.4h-9.2v30.4h-6.2v1.7h6.2V212c0,3.8,0.5,6.3,1.4,7.4c1.5,1.8,3.9,2.7,7.4,2.7c3.6,0,6.8-1.5,9.6-4.5l-0.9-0.9
		c-2.4,2.3-4.4,3.4-6.1,3.4C308.7,220.1,308,219,307.8,217L307.8,217z M269,221.3h21.3v-1.7h-6.1v-26.1h2.6v-1.6H269v1.7h5.9v26.1
		H269V221.3L269,221.3z M283.6,164.8h-7.5c2.5,7.2,2.8,14.8,2.8,22.4h1.8C280.7,179.7,281,172,283.6,164.8L283.6,164.8z
		 M267.3,161.6h15.4v-1.7h-6.1v-18.1c0-3.2-0.8-5.7-2.5-7.6c-1.7-2-3.8-2.9-6.6-2.9c-4.5,0-8.2,2.8-11.4,8.5c-1-5.7-4-8.5-9.1-8.5
		c-4.2,0-7.9,2.7-11.2,8v-7.1h-15.2v1.7h5.9v26h-5.9v1.7h21.3v-1.7h-6.1v-15.7c0.9-3,2.2-5.4,4-7.3c2.3-2.5,4.2-3.7,5.7-3.7
		c0.9,0,1.3,1.2,1.3,3.6v24.7H262v-1.6h-5.9v-16.2c1.3-3,2.9-5.4,4.7-7.5c1.8-2,3.5-3,4.8-3c1.1,0,1.6,1.2,1.6,3.6v24.8H267.3z
		 M196.7,161.6H218v-1.7h-6.1v-26h2.6v-1.7h-17.8v1.7h5.9v26h-5.9V161.6L196.7,161.6z M211.4,105.2h-7.5c2.5,7.2,2.8,14.8,2.8,22.4
		h1.7C208.4,120,208.8,112.4,211.4,105.2L211.4,105.2z M190,160c2.2-1.6,3.3-3.8,3.3-6.5c0-3.6-2.9-7-8.7-10.1
		c-3.2-1.7-5.3-3-6.3-3.9s-1.5-2-1.5-3.3c0-2.3,1.3-3.5,3.8-3.5c2.8,0,5.5,1.9,8.2,5.6v3h1.8l-0.3-11.5h-1.5v3.1
		c-2.4-1.1-5.2-1.6-8.4-1.6c-3.5,0-6.3,0.8-8.4,2.4c-2.2,1.6-3.3,3.7-3.3,6.3c0,3.5,2.3,6.5,7,9c4,2.2,6.6,3.9,7.8,4.9
		c1.2,1,1.8,2.2,1.8,3.5c0,2.2-1.4,3.3-4.1,3.3c-3.1,0-6.4-1.6-10-4.8v-3.4h-1.8V163h1.8v-2.7c3.3,1.4,6.7,2.1,10,2.1
		C184.9,162.4,187.8,161.6,190,160L190,160z M160.2,160c2.2-1.6,3.3-3.8,3.3-6.5c0-3.6-2.9-7-8.7-10.1c-3.2-1.7-5.3-3-6.3-3.9
		s-1.5-2-1.5-3.3c0-2.3,1.3-3.5,3.8-3.5c2.8,0,5.5,1.9,8.2,5.6v3h1.7l-0.3-11.5H159v3.1c-2.4-1.1-5.2-1.6-8.5-1.6
		c-3.4,0-6.3,0.8-8.4,2.4c-2.2,1.6-3.3,3.7-3.3,6.3c0,3.5,2.3,6.5,7,9c4,2.2,6.6,3.9,7.8,4.9s1.8,2.2,1.8,3.5c0,2.2-1.4,3.3-4.1,3.3
		c-3.1,0-6.4-1.6-10-4.8v-3.4h-1.8V163h1.8v-2.7c3.3,1.4,6.7,2.1,10,2.1C155,162.4,158,161.6,160.2,160L160.2,160z M136.3,157.3
		l-1.3-0.9c-2.1,2.5-3.9,3.8-5.3,3.8c-1.1,0-1.7-1.7-1.7-5.2v-11.4c0-3-0.3-5.2-0.9-6.6c-1.7-3.8-5.8-5.7-12.4-5.7
		c-4.2,0-8.4,0.7-12.5,2.2l-0.4,5.6h1.3c2.5-4.1,6.7-6.1,12.9-6.1c0.8,0,1.7,0.2,2.7,0.5v7.7c-5.5-1.8-11.7-0.9-16.1,2.9
		c-4.4,3.8-6.6,11.4-1.8,15.9c1.8,1.6,4.1,2.5,7.1,2.5c3.9,0,7.5-1.7,10.9-5.2c1.2,3.5,3.7,5.2,7.7,5.2
		C130.4,162.4,133.6,160.7,136.3,157.3L136.3,157.3z M118.8,154.6c-1.7,2.5-5.2,5.8-8.4,5.8c-1.2,0-1.9-1.3-2.2-3.8
		c0.1,0.7-1-9.3,0.9-13.1c1.3-2.8,7.5-1.3,9.6-0.6L118.8,154.6L118.8,154.6z M99.6,194.4c-1.9-2.3-4.3-3.5-7.3-3.5
		c-4,0-7.6,2.6-10.9,7.9v-7H66.2v1.7h5.9v26.1h-5.9v1.7h21.3v-1.7h-6.1v-16.7c3-6.6,6.1-10,9.3-10c1.4,0,2,1.5,2,4.6v23.8H108v-1.7
		h-5.7v-16.1C102.4,199.8,101.5,196.8,99.6,194.4L99.6,194.4z M78.6,153.7c7.6-8.3,11.4-19.3,11.4-33c0-11.9-3-21.9-9-30
		c-6-8-13.4-12.1-22.3-12.1c-8.4,0-15.2,2.7-20.6,8.2c-3.9,4-7.1,9.1-9.4,15.3c-2.3,6.2-3.5,12.6-3.5,19.1
		c0,12.7,3.9,23.4,11.7,32.1c2.7,3,6.2,5.6,10.5,7.6c-2.9,0.7-7,3.1-12.1,6.9l1.2,1.4c4.9-3.8,9.8-5.2,15.9-4.5
		c0.3,5.6,0.5,11.6,0.5,18.4c0,14.9-0.9,24.1-2.8,27.7c-1.6,3.2-4.1,5.7-7.4,7.5c-3.3,1.8-6.9,2.7-10.9,2.7c-5.8,0-9.6-1.8-11.5-5.5
		c-1.2-2.4-1.8-9-1.8-19.7v-54.6h7.7v-1.7H0v1.7h7.7v54.5c0,5.8,0.5,10.2,1.4,13.2c0.9,2.9,2.6,5.6,5,7.8c4.4,4,10.3,6,17.7,6
		c5.7,0,10.5-1.4,14.4-4.3c3.9-2.9,6.4-6.8,7.4-11.8c0.6-2.9,1.1-11.2,1.5-24.8c0.2-6.1,0.4-11.4,0.7-16.3c4.5,1.3,8.5,3.8,12,7.8
		l-1.6,1.6l1,1.3c8.2-6.7,15.5-11.5,22.1-14.4l-0.6-1.8c-4.5,2-8.7,4.6-12.9,7.3c-4-3-7.2-4.8-9.6-5.7
		C71.4,159.6,75.5,157,78.6,153.7L78.6,153.7z M76.9,116.6c0,18.3-1,30.1-3,35.3s-4.8,7-10.1,8.5c-2.6-0.8-4.9-1.3-7.6-1.2
		c0.6-7.6,1.3-13.7,2.3-18h8.2v-1.7H42.1v1.7h7.6c1.1,4.9,1.9,11,2.5,18.4c-0.8,0.1-1.4,0.2-2.3,0.3c-2.8-0.8-5.2-2.3-6.9-4.4
		c-3.2-4-4.9-14.3-4.9-31.1c0-4.8,0.2-10.6,0.7-17.4c0.4-6.8,0.9-11.1,1.3-13.1c1-4.3,3.1-7.6,6.3-10s7.2-3.6,12-3.6
		c7.3,0,12.4,2.8,15.2,8.5C75.8,93.2,76.9,102.4,76.9,116.6L76.9,116.6z M121.7,187.2c0-7.6,0.4-15.2,2.9-22.4h-7.5
		c2.5,7.2,2.8,14.8,2.8,22.4H121.7L121.7,187.2z M127.7,191.9H110v1.7h5.9v26.1H110v1.7h21.3v-1.7h-6.1v-26.1h2.5V191.9L127.7,191.9
		z M151.7,191.9h-19.8v1.7h4.8l15,29.5l4.7-10.5c3.9-8.8,7.1-15.1,9.7-19h4.9v-1.7h-14.5v1.7h3.7c0,5.3-1.6,10.9-4.5,16.7l-8.7-16.7
		h4.8v-1.7H151.7z M178,195.5c-3.2,3.1-4.8,6.8-4.8,11.2s1.6,8.1,4.7,11s7.1,4.3,11.9,4.3c5.4,0,10.5-1.9,15.2-5.7v-3.7h-1
		c-3.8,5.1-8.5,7.7-14.1,7.7c-2.6,0-4.4-0.7-5.3-2.2s-1.3-4.5-1.3-8.9c0-1.9,0-3.4,0.1-4.7h20.7c-0.1-4.3-1.5-7.7-4-10.1
		c-2.5-2.4-5.9-3.6-10.3-3.6C185.2,190.9,181.3,192.4,178,195.5L178,195.5z M183.5,202.9l0.1-1.8c0.2-3.2,0.9-5.4,1.9-6.6
		c1.1-1.3,2.9-1.9,5.4-1.9c5,0,7.5,3,7.5,8.9c0,0.5-0.1,1-0.1,1.4L183.5,202.9L183.5,202.9z M222.6,191.9h-15.2v1.7h5.9v26.1h-5.9
		v1.7h23.3v-1.7h-8.2v-10.3c0-4.5,0.4-7.7,1.1-9.6c1.3-3.3,3.1-5,5.4-5c2.6,0,4.5,1.9,5.6,5.6c0.3,1,0.5,2.5,0.5,4.6h1.8v-15.9h-1.8
		v3.4c-1.6-0.4-2.8-0.6-3.7-0.6c-3.5,0-6.5,2-8.8,6L222.6,191.9L222.6,191.9z M255.7,213.5c1.2,1,1.8,2.2,1.8,3.5
		c0,2.2-1.4,3.3-4.1,3.3c-3.1,0-6.4-1.6-10-4.8v-3.4h-1.8v10.5h1.8v-2.7c3.3,1.4,6.7,2.1,10,2.1c3.7,0,6.7-0.8,8.8-2.4
		c2.2-1.6,3.2-3.8,3.2-6.5c0-3.7-2.9-7-8.6-10.1c-3.2-1.7-5.3-3-6.3-3.9s-1.5-2-1.5-3.3c0-2.4,1.3-3.5,3.8-3.5
		c2.8,0,5.5,1.9,8.2,5.6v3h1.7l-0.3-11.6h-1.3v3.1c-2.4-1.1-5.2-1.6-8.4-1.6c-3.5,0-6.3,0.8-8.5,2.4c-2.2,1.6-3.3,3.7-3.3,6.3
		c0,3.4,2.3,6.4,7,9C251.9,210.9,254.5,212.5,255.7,213.5L255.7,213.5z"/>
	<polygon class="st3" points="371.7,70.5 389.8,70.5 389.8,88.6 371.7,88.6 	"/>
</g>
</svg>
